<?xml version="1.0" encoding="UTF-8"?>
<svg width="31px" height="30px" viewBox="0 0 31 30" version="1.1" xmlns="http://www.w3.org/2000/svg" xmlns:xlink="http://www.w3.org/1999/xlink">
    <!-- Generator: Sketch 43.1 (39012) - http://www.bohemiancoding.com/sketch -->
    <title>annotation</title>
    <desc>Created with Sketch.</desc>
    <defs>
        <linearGradient x1="0%" y1="0%" x2="101.999998%" y2="100.999999%" id="linearGradient-1">
            <stop stop-color="#3023AE" offset="0%"></stop>
            <stop stop-color="#C96DD8" offset="100%"></stop>
        </linearGradient>
    </defs>
    <g id="Page-1" stroke="none" stroke-width="1" fill="none" fill-rule="evenodd">
        <path d="M20.228535,14.793272 C20.6318739,14.793272 20.9592214,15.1206195 20.9592214,15.5239584 C20.9592214,15.9272974 20.6318739,16.2546449 20.228535,16.2546449 L1.23068648,16.2546449 C0.827347543,16.2546449 0.5,15.9272974 0.5,15.5239584 C0.5,15.1206195 0.827347543,14.793272 1.23068648,14.793272 L20.228535,14.793272 Z M20.228535,9.22961072 C20.6318739,9.22961072 20.9592214,9.55695827 20.9592214,9.9602972 C20.9592214,10.3636361 20.6318739,10.6909837 20.228535,10.6909837 L1.23068648,10.6909837 C0.827347543,10.6909837 0.5,10.3636361 0.5,9.9602972 C0.5,9.55695827 0.827347543,9.22961072 1.23068648,9.22961072 L20.228535,9.22961072 Z M20.228535,20.3569332 C20.6318739,20.3569332 20.9592214,20.6842807 20.9592214,21.0876197 C20.9592214,21.4909586 20.6318739,21.8183061 20.228535,21.8183061 L1.23068648,21.8183061 C0.827347543,21.8183061 0.5,21.4909586 0.5,21.0876197 C0.5,20.6842807 0.827347543,20.3569332 1.23068648,20.3569332 L20.228535,20.3569332 Z M20.228535,25.9205944 C20.6318739,25.9205944 20.9592214,26.247942 20.9592214,26.6512809 C20.9592214,27.0546198 20.6318739,27.3819674 20.228535,27.3819674 L1.23068648,27.3819674 C0.827347543,27.3819674 0.5,27.0546198 0.5,26.6512809 C0.5,26.247942 0.827347543,25.9205944 1.23068648,25.9205944 L20.228535,25.9205944 Z M27.4443939,2.92274592 C26.9974809,2.91950742 26.6380075,2.55193771 26.641246,2.10664401 C26.6509615,0.944022644 27.6014611,0 28.7576055,0 C29.9202269,0 30.8658687,0.947261143 30.8658687,2.11312101 C30.8658687,2.56003396 30.504776,2.92274592 30.0562438,2.92274592 C29.6093309,2.92274592 29.2466189,2.56003396 29.2466189,2.11312101 C29.2466189,1.84594479 29.0231625,1.61924982 28.7576055,1.61924982 C28.4807138,1.61924982 28.2637343,1.83946779 28.2604958,2.11959801 C28.2572573,2.56489171 27.8945453,2.92274592 27.4508709,2.92274592 L27.4443939,2.92274592 Z M4.89176005,5.84549184 C4.08179647,5.84549184 3.42274592,5.18854436 3.42274592,4.38028828 C3.42274592,3.5758628 4.08179647,2.92274592 4.89176005,2.92274592 C5.69217217,2.92274592 6.34549184,3.5758628 6.34549184,4.38028828 C6.34549184,5.18854436 5.69217217,5.84549184 4.89176005,5.84549184 Z M10.7286512,5.84549184 C9.92456022,5.84549184 9.26823776,5.18854436 9.26823776,4.38028828 C9.26823776,3.5758628 9.92456022,2.92274592 10.7286512,2.92274592 C11.5346612,2.92274592 12.1909837,3.5758628 12.1909837,4.38028828 C12.1909837,5.20195146 11.5480947,5.84549184 10.7286512,5.84549184 Z M16.574143,5.84549184 C15.7566186,5.84549184 15.1137296,5.20195146 15.1137296,4.38028828 C15.1137296,3.5758628 15.768133,2.92274592 16.574143,2.92274592 C17.3801531,2.92274592 18.0364755,3.5758628 18.0364755,4.38028828 C18.0364755,5.20195146 17.3935866,5.84549184 16.574143,5.84549184 Z M30.8645125,25.0099368 C30.8645125,25.0523167 30.8497599,25.0844669 30.8630373,25.1385377 C31.003187,25.324132 31.0444943,25.5637972 30.9766323,25.7844645 L29.2885846,29.4797512 C29.1941679,29.7895623 28.9064922,30 28.581935,30 C28.5716081,30 27.9342958,29.7501052 27.862008,29.4242191 L26.042497,25.7289323 C26.0100413,25.5886405 26.0380713,25.4483487 26.0897054,25.3153638 C26.0749528,25.2101449 26.0410218,25.1210012 26.0410218,25.0055527 L26.0410218,5.91125363 L24.5657617,7.09934984 L24.5657617,11.6909837 C24.5657617,12.0943226 24.2353034,12.4216702 23.8281316,12.4216702 C23.4209599,12.4216702 23.0905016,12.0943226 23.0905016,11.6909837 L23.0905016,6.75154308 C23.0905016,6.53233713 23.189344,6.3233608 23.3634247,6.18453037 L25.4981261,4.46595577 C25.6795831,4.3183571 25.9067731,4.28474552 26.1206858,4.33004808 C26.297717,3.49122 28.3388672,2.93882102 29.176815,2.93882102 C29.6651261,2.93882102 30.1091793,3.1185699 30.4366871,3.44591744 C30.7937,3.80395382 30.9869591,4.30082062 30.9825333,4.84883548 C30.9825333,4.84883548 30.9819317,4.95160988 30.9816309,5.00299708 L30.8645125,25.0099368 Z M29.1841913,4.40019398 C29.0440416,4.40019398 27.5162819,4.54779265 27.5162819,4.84152862 L27.5162819,10.5642651 C27.6888873,10.5408832 29.3228657,10.5730334 29.4733422,10.6650999 L29.5072732,4.83860587 C29.5087485,4.68516171 29.4644907,4.5507154 29.3877772,4.47472401 C29.3567967,4.4425738 29.3007368,4.40019398 29.1841913,4.40019398 Z M27.5162819,20.7456505 L27.5162819,24.8433403 L29.3907277,24.8433403 L29.4158071,20.6755046 C29.3095884,20.7295754 27.7346204,20.7661098 27.6180748,20.7661098 C27.5841439,20.7661098 27.5502129,20.7500347 27.5162819,20.7456505 Z M29.4467876,15.034605 L29.4659659,11.8736553 C29.3464699,11.9481853 27.755274,11.997872 27.6180748,11.997872 C27.5841439,11.997872 27.5502129,11.9817969 27.5162819,11.9774128 L27.5162819,14.9513068 C27.6785605,14.9293862 29.3036873,14.9571523 29.4467876,15.034605 Z M29.4231834,19.4026488 L29.4423618,16.2753107 C29.3272915,16.3396111 27.7449472,16.3819909 27.6180748,16.3819909 C27.5841439,16.3819909 27.5502129,16.3659158 27.5162819,16.3615317 L27.5162819,19.3325029 C27.6697089,19.3120437 29.2830337,19.3354256 29.4231834,19.4026488 Z" id="annotation" fill="url(#linearGradient-1)"></path>
    </g>
</svg>