<?xml version="1.0" encoding="UTF-8"?>
<svg width="26px" height="30px" viewBox="0 0 26 30" version="1.1" xmlns="http://www.w3.org/2000/svg" xmlns:xlink="http://www.w3.org/1999/xlink">
    <!-- Generator: Sketch 43.1 (39012) - http://www.bohemiancoding.com/sketch -->
    <title>attachment</title>
    <desc>Created with Sketch.</desc>
    <defs>
        <linearGradient x1="0%" y1="0%" x2="101.999998%" y2="100.999999%" id="linearGradient-1">
            <stop stop-color="#3023AE" offset="0%"></stop>
            <stop stop-color="#C96DD8" offset="100%"></stop>
        </linearGradient>
    </defs>
    <g id="Page-1" stroke="none" stroke-width="1" fill="none" fill-rule="evenodd">
        <path d="M24.1827138,28.4885804 L1.51141961,28.4885804 L1.51141961,1.51141961 L18.2127361,1.45266278 L18.2127361,6.26569458 C18.2127361,6.68284639 18.9256016,7.57242137 19.3427534,7.57242137 L24.1557852,7.57242137 L24.1827138,28.4885804 Z M19.4689731,1.66256158 L23.9379388,6.12289992 L19.4689731,6.12289992 L19.4689731,1.66256158 Z M0,0 L20.0694693,0 L25.6941335,5.61408419 L25.6941335,30 L0,30 L0,0 Z M11.9988309,21.5443238 C11.9988309,23.1619044 10.4827115,24.580911 8.75352365,24.580911 C7.02433581,24.580911 5.50676694,23.1619044 5.50676694,21.5443238 L5.50676694,8.36886913 C5.50676694,6.75128856 7.02433581,5.33228195 8.75352365,5.33228195 C8.79265866,5.33228195 8.8259959,5.31488861 8.86223202,5.30909083 C8.89846814,5.31488861 8.93180538,5.33228195 8.97094039,5.33228195 C10.2145642,5.33228195 11.3045468,6.33239897 11.3045468,7.47311215 L11.3045468,17.4945746 C11.3045468,18.7179061 10.5551837,19.5078536 9.39562776,19.5078536 C8.85063646,19.5078536 8.40565686,19.0715707 8.40565686,18.5338266 L8.40565686,12.9143285 C8.40565686,12.5142817 8.08098119,12.189606 7.68093438,12.189606 C7.28088757,12.189606 6.9562119,12.5142817 6.9562119,12.9143285 L6.9562119,18.5338266 C6.9562119,19.8702149 8.05054284,20.9572986 9.39562776,20.9572986 C11.3407829,20.9572986 12.7539917,19.5006064 12.7539917,17.4945746 L12.7539917,7.47311215 C12.7539917,5.52650757 11.021905,3.88283699 8.97094039,3.88283699 C8.93180538,3.88283699 8.89846814,3.89878089 8.86223202,3.90457866 C8.8259959,3.89878089 8.79265866,3.88283699 8.75352365,3.88283699 C6.2082983,3.88283699 4.05732199,5.93670049 4.05732199,8.36886913 L4.05732199,21.5443238 C4.05732199,23.9764924 6.2082983,26.0303559 8.75352365,26.0303559 C11.298749,26.0303559 13.4482759,23.9764924 13.4482759,21.5443238 C13.4482759,21.144277 13.1236002,20.8196013 12.7235534,20.8196013 C12.3235066,20.8196013 11.9988309,21.144277 11.9988309,21.5443238 Z M21.2441356,19.5745634 L15.8725452,19.5745634 C15.5019054,19.5745634 15.2010964,19.9131214 15.2010964,20.3302732 C15.2010964,20.747425 15.5019054,21.085983 15.8725452,21.085983 L21.2441356,21.085983 C21.6147754,21.085983 21.9155844,20.747425 21.9155844,20.3302732 C21.9155844,19.9131214 21.6147754,19.5745634 21.2441356,19.5745634 Z M21.2441356,23.0743395 L15.8725452,23.0743395 C15.5019054,23.0743395 15.2010964,23.4128974 15.2010964,23.8300493 C15.2010964,24.2472011 15.5019054,24.5857591 15.8725452,24.5857591 L21.2441356,24.5857591 C21.6147754,24.5857591 21.9155844,24.2472011 21.9155844,23.8300493 C21.9155844,23.4128974 21.6147754,23.0743395 21.2441356,23.0743395 Z M15.2010964,10.7848186 C15.2010964,11.2019704 15.5019054,11.5405284 15.8725452,11.5405284 L21.2441356,11.5405284 C21.6147754,11.5405284 21.9155844,11.2019704 21.9155844,10.7848186 C21.9155844,10.3676668 21.6147754,10.0291088 21.2441356,10.0291088 L15.8725452,10.0291088 C15.5019054,10.0291088 15.2010964,10.3676668 15.2010964,10.7848186 Z M21.2441356,13.5288849 L15.8725452,13.5288849 C15.5019054,13.5288849 15.2010964,13.8674429 15.2010964,14.2845947 C15.2010964,14.7017465 15.5019054,15.0403045 15.8725452,15.0403045 L21.2441356,15.0403045 C21.6147754,15.0403045 21.9155844,14.7017465 21.9155844,14.2845947 C21.9155844,13.8674429 21.6147754,13.5288849 21.2441356,13.5288849 Z" id="attachment" fill="url(#linearGradient-1)"></path>
    </g>
</svg>