<?xml version="1.0" encoding="UTF-8"?>
<svg width="31px" height="32px" viewBox="0 0 31 32" version="1.1" xmlns="http://www.w3.org/2000/svg" xmlns:xlink="http://www.w3.org/1999/xlink">
    <!-- Generator: Sketch 43.1 (39012) - http://www.bohemiancoding.com/sketch -->
    <title>click</title>
    <desc>Created with Sketch.</desc>
    <defs>
        <linearGradient x1="0%" y1="0%" x2="101.999998%" y2="100.999999%" id="linearGradient-1">
            <stop stop-color="#3023AE" offset="0%"></stop>
            <stop stop-color="#C96DD8" offset="100%"></stop>
        </linearGradient>
    </defs>
    <g id="Page-1" stroke="none" stroke-width="1" fill="none" fill-rule="evenodd">
        <path d="M19.0661365,25.1409321 C19.049643,25.1619626 19.0317239,25.1821759 19.0123862,25.2014303 L15.8175064,28.39641 C15.5563527,28.6582047 15.1318161,28.6597693 14.8705417,28.3973244 C14.7187499,28.245703 14.6550686,28.0383138 14.6797475,27.8401163 L11.6527971,12.5265292 C11.6099116,12.3067409 11.6782604,12.0802517 11.8364007,11.9221113 C11.9945411,11.763971 12.2250508,11.6956222 12.4408186,11.7385077 L27.9157914,14.823585 C28.1570225,14.8718312 28.3540279,15.0500741 28.4263972,15.2859445 C28.4974263,15.5231551 28.433098,15.779128 28.2588756,15.9546906 L23.4731193,20.7364264 L30.9780858,28.2360322 L27.6598185,31.5836525 C27.5861587,31.6573122 20.2421562,24.1578215 20.2421562,24.1578215 C20.1941784,23.9929293 21.1484584,23.1793391 21.1484584,23.1793391 C24.445974,26.6099318 27.6037405,29.7213122 27.6598185,29.6646562 L29.0830817,28.2387126 L22.5256173,21.6839284 L19.0661365,25.1409321 Z M15.787389,26.5337127 L17.7765452,24.5434427 C17.7942508,24.5203762 17.813663,24.4981983 17.834782,24.4770794 L26.4241793,15.8930427 L13.1618314,13.2488822 L15.787389,26.5337127 Z M8.31710751,23.7062489 C8.59050272,23.458317 9.01533743,23.4770794 9.26460953,23.7504746 C9.51254146,24.0238698 9.49377904,24.4473643 9.22038383,24.6979766 L5.87397288,27.7441889 C5.74665649,27.8607839 5.5844956,27.9184113 5.42367489,27.9184113 C5.24141142,27.9184113 5.05914795,27.8447018 4.92647086,27.6999632 C4.67853894,27.426568 4.69864152,27.0030734 4.97203673,26.7524612 L8.31710751,23.7062489 Z M6.86436042,16.7226095 L6.62983022,18.8977096 L1.6296463,19.5584147 C1.59882233,19.5624352 1.57067871,19.5637754 1.53985474,19.5637754 C1.20883211,19.5637754 0.920695003,19.3185238 0.876469308,18.9808003 C0.828223095,18.6149332 1.0868764,18.2772097 1.45408369,18.2289635 L5.41027317,17.7062962 L5.53222887,16.5792111 C5.57109388,16.2106636 5.90345668,15.9466496 6.2693238,15.9841744 C6.63787126,16.0243796 6.90322543,16.3540621 6.86436042,16.7226095 Z M2.78487507,10.4237984 C2.45519262,10.2562768 2.32251553,9.85288485 2.49137727,9.5232024 C2.65889885,9.1908396 3.06765149,9.0635232 3.39197325,9.2297046 L7.4178517,11.2815088 C7.74753416,11.4490304 7.88021125,11.8524224 7.7113495,12.1821048 C7.59341431,12.4139547 7.35754394,12.5479719 7.11363253,12.5479719 C7.01043924,12.5479719 6.90724595,12.5238488 6.81075352,12.4742624 L2.78487507,10.4237984 Z M13.9243896,6.63781082 C14.0168615,6.99697707 13.7997536,7.36150402 13.4405873,7.45263575 L11.3284753,7.99138513 L8.93090655,3.55675404 C8.75400377,3.23243228 8.87595948,2.82501981 9.20028124,2.6494572 C9.52594318,2.47657494 9.93335565,2.59316995 10.1089183,2.92017206 L12.009283,6.43410459 L13.1109049,6.15400852 C13.4714113,6.05885626 13.8332579,6.27998474 13.9243896,6.63781082 Z M17.9944938,6.64183134 C17.6259463,6.60162616 17.3605921,6.27060353 17.3994571,5.90339624 L17.8859398,1.40443687 C17.926145,1.03588941 18.267889,0.777236099 18.6243749,0.810740413 C18.9929223,0.850945591 19.2582765,1.18062805 19.2180713,1.54917551 L18.7315887,6.04679471 C18.695404,6.39121906 18.4045866,6.64585186 18.0668631,6.64585186 C18.04274,6.64585186 18.0186169,6.64451168 17.9944938,6.64183134 Z M24.9808134,10.6087422 C24.7704064,10.6087422 24.5626796,10.5082292 24.4326829,10.3232854 L23.1796215,8.5354952 L26.4871674,4.72404437 C26.732419,4.4439483 27.1532332,4.4144645 27.4333293,4.65837591 C27.7120852,4.90094715 27.7429092,5.32310151 27.5003379,5.60319758 L24.8776202,8.62394659 L25.5302842,9.5526862 C25.7433717,9.85690537 25.6696622,10.2750392 25.365443,10.4867865 C25.248848,10.568537 25.1148307,10.6087422 24.9808134,10.6087422 Z" id="click" fill="url(#linearGradient-1)"></path>
    </g>
</svg>