<?xml version="1.0" encoding="UTF-8"?>
<svg width="35px" height="33px" viewBox="0 0 35 33" version="1.1" xmlns="http://www.w3.org/2000/svg" xmlns:xlink="http://www.w3.org/1999/xlink">
    <!-- Generator: Sketch 43.1 (39012) - http://www.bohemiancoding.com/sketch -->
    <title>cloud-add</title>
    <desc>Created with Sketch.</desc>
    <defs>
        <linearGradient x1="0%" y1="0%" x2="101.999998%" y2="100.999999%" id="linearGradient-1">
            <stop stop-color="#3023AE" offset="0%"></stop>
            <stop stop-color="#C96DD8" offset="100%"></stop>
        </linearGradient>
    </defs>
    <g id="Page-1" stroke="none" stroke-width="1" fill="none" fill-rule="evenodd">
        <path d="M16.0798484,24.0182286 C17.9351957,24.0182286 19.6297971,24.0182286 19.651277,24.0182286 C19.9793665,24.0182286 20.2465151,24.2848162 20.2465151,24.6120561 C20.2465151,24.9414118 19.9793665,25.2087048 19.651277,25.2087048 C19.624226,25.2087048 17.9321608,25.2087048 16.0798484,25.2087048 C16.0798484,27.0546975 16.0798484,28.7416304 16.0798484,28.7801333 C16.0798484,29.1720888 15.7525556,29.3753714 15.4831998,29.3753714 C15.2033682,29.3753714 14.8893722,29.1238689 14.8893722,28.7801333 C14.8893722,28.7595304 14.8893722,27.0645347 14.8893722,25.2087048 C13.0433794,25.2087048 11.3564465,25.2087048 11.3179436,25.2087048 C10.9259882,25.2087048 10.7227055,24.8814119 10.7227055,24.6120561 C10.7227055,24.3322246 10.9742081,24.0182286 11.3179436,24.0182286 C11.3385465,24.0182286 13.0335423,24.0182286 14.8893722,24.0182286 C14.8893722,22.1628813 14.8893722,20.4682799 14.8893722,20.4468 C14.8893722,20.1187104 15.1559599,19.8515619 15.4831998,19.8515619 C15.8125555,19.8515619 16.0798484,20.1187104 16.0798484,20.4468 C16.0798484,20.473851 16.0798484,22.1659162 16.0798484,24.0182286 Z M25.3796897,5.83965714 C26.7839754,5.91108571 28.1539754,6.74251429 28.7811182,7.98822857 C32.0596897,8.59537143 34.6082611,11.4939429 34.7496897,14.8196571 C34.7468325,21.9625143 32.3525468,21.9625143 29.5811182,21.9625143 L25.6433405,21.9625143 C25.2490547,21.9625143 24.9290547,21.6425143 24.9290547,21.2482286 C24.9290547,20.8539429 25.2490547,20.5339429 25.6433405,20.5339429 L29.5811182,20.5339429 C31.6139754,20.5339429 33.2182611,20.5339429 33.2211182,15.1296571 C33.2196897,12.2839429 30.9225468,9.69394286 28.0982611,9.34251429 C27.8339754,9.31108571 27.6111182,9.13394286 27.5168325,8.88394286 C27.1568325,7.91394286 26.2196897,7.26394286 25.185404,7.26394286 C25.0125468,7.31251429 24.9282611,7.33537143 24.8425468,7.34965714 C24.6282611,7.38394286 24.425404,7.32394286 24.2668325,7.18965714 C24.1068325,7.05537143 24.0139754,6.85822857 24.0125468,6.64965714 C23.995404,4.29251429 22.0668325,2.37537143 19.7125468,2.37537143 C17.8525468,2.37537143 16.2268325,3.6068 15.6668325,5.44251429 C15.5939754,5.67965714 15.4039754,5.86108571 15.1639754,5.92251429 C14.925404,5.98965714 14.6668325,5.91965714 14.4896897,5.74822857 C13.7368325,5.02822857 12.7611182,4.62965714 11.745404,4.62965714 C9.6682611,4.62965714 7.98111824,6.21822857 7.82540396,8.3268 C7.79968967,8.65822857 7.5482611,8.93108571 7.2182611,8.97965714 C4.50968967,9.3868 2.22111824,12.1396571 2.22111824,14.9925143 C2.22111824,20.5339429 4.05254681,20.5339429 5.82397538,20.5339429 L5.56397538,20.5339429 C5.9582611,20.5339429 6.2782611,20.8539429 6.2782611,21.2482286 C6.2782611,21.6425143 5.9582611,21.9625143 5.56397538,21.9625143 L5.82397538,21.9625143 C2.81540396,21.9625143 0.808261098,20.7868 0.78968967,15.0125143 C0.788261098,14.9796571 0.78968967,14.9482286 0.792546813,14.9168 C0.835403955,11.5468 3.32111824,8.42822857 6.4682611,7.67251429 C6.91397538,5.0868 9.09683253,3.20108571 11.745404,3.20108571 C12.7939754,3.20108571 13.8068325,3.50822857 14.6782611,4.07965714 C15.6396897,2.17108571 17.5568325,0.9468 19.7125468,0.9468 C22.5782611,0.9468 24.9711182,3.07822857 25.3796897,5.83965714 Z M23.8996897,16.5625143 C23.6139754,16.2896571 23.6025468,15.8382286 23.8739754,15.5525143 C24.2139754,15.1968 24.6096897,14.9210857 25.0396897,14.7139429 C24.7482611,14.0968 24.2796897,13.5868 23.6668325,13.2610857 C22.9111182,12.8568 22.0382611,12.7696571 21.2196897,13.0253714 C20.8368325,13.1396571 20.4425468,12.9268 20.3268325,12.5510857 C20.2125468,12.1739429 20.4239754,11.7739429 20.8011182,11.6582286 C21.9868325,11.2968 23.2425468,11.4168 24.3396897,11.9996571 C25.2996897,12.5139429 26.015404,13.3396571 26.4211182,14.3353714 C26.5168325,14.3253714 26.6082611,14.3039429 26.705404,14.3010857 C27.785404,14.2596571 28.8082611,14.6710857 29.585404,15.4168 C29.8696897,15.6896571 29.8796897,16.1425143 29.6068325,16.4268 C29.335404,16.7110857 28.8825468,16.7225143 28.5968325,16.4496571 C28.0939754,15.9696571 27.4425468,15.6796571 26.7382611,15.7296571 C26.0396897,15.7439429 25.3896897,16.0325143 24.9096897,16.5368 C24.7682611,16.6853714 24.5811182,16.7582286 24.3925468,16.7582286 C24.215404,16.7582286 24.0382611,16.6925143 23.8996897,16.5625143 Z M13.1396897,12.0253714 C12.7468325,11.9825143 12.4639754,11.6296571 12.5068325,11.2368 C12.5211182,11.1139429 12.5582611,11.0025143 12.5825468,10.8839429 C10.4811182,10.4910857 8.42540396,11.8282286 7.9582611,13.9310857 C7.88397538,14.2639429 7.5882611,14.4896571 7.25968967,14.4896571 C7.20968967,14.4896571 7.15683253,14.4853714 7.10540396,14.4739429 C6.72111824,14.3868 6.4782611,14.0068 6.56254681,13.6210857 C7.21254681,10.7053714 10.1082611,8.86251429 13.0268325,9.50394286 C13.0582611,9.51108571 13.0839754,9.53251429 13.1139754,9.54394286 C13.915404,8.27537143 15.385404,7.48965714 16.9625468,7.65822857 C17.355404,7.70108571 17.6382611,8.05251429 17.5968325,8.44394286 C17.555404,8.83822857 17.175404,9.12251429 16.8111182,9.07822857 C15.3611182,8.93394286 14.0839754,9.9668 13.9268325,11.3939429 C13.8868325,11.7582286 13.5768325,12.0296571 13.2182611,12.0296571 C13.1925468,12.0296571 13.165404,12.0282286 13.1396897,12.0253714 Z M9.28148613,18.7702127 C10.8687551,17.1630698 13.0016478,16.2801333 15.2932674,16.2801333 C19.8566658,16.2801333 23.566907,20.0202127 23.566907,24.6134667 C23.566907,29.2067206 19.8566658,32.9468 15.2932674,32.9468 C13.0016478,32.9468 10.8687551,32.0638635 9.28148613,30.4567206 C7.72397844,28.8793397 6.88074179,26.7860857 6.90058266,24.5638635 C6.88074179,22.4408476 7.72397844,20.3475937 9.28148613,18.7702127 Z M8.09071654,24.6134667 C8.09071654,28.5505415 11.2897687,31.7563238 15.2166475,31.7563238 C19.1689156,31.7563238 22.3764308,28.5505415 22.3764308,24.6134667 C22.3764308,20.6763918 19.1689156,17.4706095 15.2166475,17.4706095 C11.2897687,17.4706095 8.09071654,20.6763918 8.09071654,24.6134667 Z" id="cloud-add" fill="url(#linearGradient-1)"></path>
    </g>
</svg>