<?xml version="1.0" encoding="UTF-8"?>
<svg width="24px" height="30px" viewBox="0 0 24 30" version="1.1" xmlns="http://www.w3.org/2000/svg" xmlns:xlink="http://www.w3.org/1999/xlink">
    <!-- Generator: Sketch 43.1 (39012) - http://www.bohemiancoding.com/sketch -->
    <title>Combined Shape</title>
    <desc>Created with Sketch.</desc>
    <defs>
        <linearGradient x1="0%" y1="0%" x2="101.999998%" y2="100.999999%" id="linearGradient-1">
            <stop stop-color="#3023AE" offset="0%"></stop>
            <stop stop-color="#C96DD8" offset="100%"></stop>
        </linearGradient>
    </defs>
    <g id="Page-1" stroke="none" stroke-width="1" fill="none" fill-rule="evenodd">
        <path d="M21.8181818,28.6363636 L1.36363636,28.6363636 L1.36363636,1.36363636 L17.7272727,1.36363636 L17.7272727,4.77272727 C17.7272727,5.14909091 18.0327273,5.45454545 18.4090909,5.45454545 L21.8181818,5.45454545 L21.8181818,28.6363636 Z M19.0909091,1.97590909 L21.21,4.09090909 L19.0909091,4.09090909 L19.0909091,1.97590909 Z M19.0404545,0 L23.1818182,4.13181818 L23.1818182,30 L0,30 L0,0 L19.0404545,0 Z M10.8804545,22.4372727 C10.5040909,22.4372727 10.1986364,22.7427273 10.1986364,23.1190909 C10.1986364,24.6409091 8.77227273,25.9759091 7.14545455,25.9759091 C5.51863636,25.9759091 4.09090909,24.6409091 4.09090909,23.1190909 L4.09090909,10.7236364 C4.09090909,9.20181818 5.51863636,7.86681818 7.14545455,7.86681818 C7.18227273,7.86681818 7.21363636,7.85045455 7.24772727,7.845 C7.28181818,7.85045455 7.31318182,7.86681818 7.35,7.86681818 C8.52,7.86681818 9.54545455,8.80772727 9.54545455,9.88090909 L9.54545455,19.3090909 C9.54545455,20.46 8.84045455,21.2031818 7.74954545,21.2031818 C7.23681818,21.2031818 6.81818182,20.7927273 6.81818182,20.2868182 L6.81818182,15 C6.81818182,14.6236364 6.51272727,14.3181818 6.13636364,14.3181818 C5.76,14.3181818 5.45454545,14.6236364 5.45454545,15 L5.45454545,20.2868182 C5.45454545,21.5440909 6.48409091,22.5668182 7.74954545,22.5668182 C9.57954545,22.5668182 10.9090909,21.1963636 10.9090909,19.3090909 L10.9090909,9.88090909 C10.9090909,8.04954545 9.27954545,6.50318182 7.35,6.50318182 C7.31318182,6.50318182 7.28181818,6.51818182 7.24772727,6.52363636 C7.21363636,6.51818182 7.18227273,6.50318182 7.14545455,6.50318182 C4.75090909,6.50318182 2.72727273,8.43545455 2.72727273,10.7236364 L2.72727273,23.1190909 C2.72727273,25.4072727 4.75090909,27.3395455 7.14545455,27.3395455 C9.54,27.3395455 11.5622727,25.4072727 11.5622727,23.1190909 C11.5622727,22.7427273 11.2568182,22.4372727 10.8804545,22.4372727 Z M19.0909091,17.7272727 L13.6363636,17.7272727 C13.26,17.7272727 12.9545455,18.0327273 12.9545455,18.4090909 C12.9545455,18.7854545 13.26,19.0909091 13.6363636,19.0909091 L19.0909091,19.0909091 C19.4672727,19.0909091 19.7727273,18.7854545 19.7727273,18.4090909 C19.7727273,18.0327273 19.4672727,17.7272727 19.0909091,17.7272727 Z M19.0909091,21.8181818 L13.6363636,21.8181818 C13.26,21.8181818 12.9545455,22.1236364 12.9545455,22.5 C12.9545455,22.8763636 13.26,23.1818182 13.6363636,23.1818182 L19.0909091,23.1818182 C19.4672727,23.1818182 19.7727273,22.8763636 19.7727273,22.5 C19.7727273,22.1236364 19.4672727,21.8181818 19.0909091,21.8181818 Z M12.9545455,8.86363636 C12.9545455,9.24 13.26,9.54545455 13.6363636,9.54545455 L19.0909091,9.54545455 C19.4672727,9.54545455 19.7727273,9.24 19.7727273,8.86363636 C19.7727273,8.48727273 19.4672727,8.18181818 19.0909091,8.18181818 L13.6363636,8.18181818 C13.26,8.18181818 12.9545455,8.48727273 12.9545455,8.86363636 Z M19.0909091,12.2727273 L13.6363636,12.2727273 C13.26,12.2727273 12.9545455,12.5781818 12.9545455,12.9545455 C12.9545455,13.3309091 13.26,13.6363636 13.6363636,13.6363636 L19.0909091,13.6363636 C19.4672727,13.6363636 19.7727273,13.3309091 19.7727273,12.9545455 C19.7727273,12.5781818 19.4672727,12.2727273 19.0909091,12.2727273 Z M4.02272727,5.16954545 C4.64318182,5.16954545 5.14909091,4.66227273 5.14909091,4.04045455 C5.14909091,3.41590909 4.64318182,2.90727273 4.02272727,2.90727273 C3.39818182,2.90727273 2.88954545,3.41590909 2.88954545,4.04045455 C2.88954545,4.66227273 3.39818182,5.16954545 4.02272727,5.16954545 Z M7.16181818,5.16954545 C7.785,5.16954545 8.29227273,4.66227273 8.29227273,4.04045455 C8.29227273,3.41590909 7.785,2.90727273 7.16181818,2.90727273 C6.53590909,2.90727273 6.02727273,3.41590909 6.02727273,4.04045455 C6.02727273,4.66227273 6.53590909,5.16954545 7.16181818,5.16954545 Z M10.3077273,5.16954545 C10.9295455,5.16954545 11.4340909,4.66227273 11.4340909,4.04045455 C11.4340909,3.41590909 10.9295455,2.90727273 10.3077273,2.90727273 C9.68454545,2.90727273 9.17590909,3.41590909 9.17590909,4.04045455 C9.17590909,4.66227273 9.68454545,5.16954545 10.3077273,5.16954545 Z" id="Combined-Shape" fill="url(#linearGradient-1)"></path>
    </g>
</svg>