<?xml version="1.0" encoding="UTF-8"?>
<svg width="36px" height="31px" viewBox="0 0 36 31" version="1.1" xmlns="http://www.w3.org/2000/svg" xmlns:xlink="http://www.w3.org/1999/xlink">
    <!-- Generator: Sketch 43.1 (39012) - http://www.bohemiancoding.com/sketch -->
    <title>dialog</title>
    <desc>Created with Sketch.</desc>
    <defs>
        <linearGradient x1="0%" y1="0%" x2="101.999998%" y2="100.999999%" id="linearGradient-1">
            <stop stop-color="#3023AE" offset="0%"></stop>
            <stop stop-color="#C96DD8" offset="100%"></stop>
        </linearGradient>
    </defs>
    <g id="Page-1" stroke="none" stroke-width="1" fill="none" fill-rule="evenodd">
        <path d="M34.2771686,14.7216565 C34.2771686,16.2269434 33.0744077,17.4091443 31.9935383,17.5280987 C31.6219894,17.5692187 31.3400235,17.8834932 31.3400235,18.2579792 L31.3400235,20.9250049 L26.573037,18.1933621 C26.4761112,18.1478363 26.3674369,18.1228706 26.2587625,18.1228706 L25.4657333,18.1228706 L25.4657333,12.4659291 C25.4657333,11.8359115 25.3805561,11.2587625 25.2381046,10.7344821 C25.173092,10.4832268 25.0235103,10.0142085 24.83131,9.69620129 C24.2071666,8.53749755 23.1571373,7.84286274 21.8368905,7.84286274 L10.7800078,7.84286274 L10.7800078,4.82641472 C10.7800078,3.24329352 12.6465635,1.96857255 14.1915019,1.96857255 L31.056589,1.96857255 C32.5765616,1.96857255 34.2771686,3.19042491 34.2771686,4.82641472 L34.2771686,14.7216565 Z M23.9971608,22.3655767 C23.9971608,22.8825142 23.8928921,25.4657333 21.8368905,25.4657333 L9.58165263,25.4657333 L4.90571764,28.0239867 L4.90571764,25.246916 L4.25220286,25.1734874 C3.17133346,25.054533 1.96857255,23.8708635 1.96857255,22.3655767 L1.96857255,12.4659291 C1.96857255,10.844625 3.42833366,9.31143528 4.97180341,9.31143528 L9.31143528,9.31143528 L9.31143528,14.7216565 C9.31143528,17.1345212 11.7742314,19.5914431 14.1915019,19.5914431 L23.9971608,19.5914431 L23.9971608,22.3655767 Z M23.9971608,18.1228706 L14.1915019,18.1228706 C12.5981006,18.1228706 10.7800078,16.310652 10.7800078,14.7216565 L10.7800078,9.31143528 L21.8368905,9.31143528 C23.4317603,9.31143528 23.9971608,11.0105737 23.9971608,12.4659291 L23.9971608,18.1228706 Z M14.1915019,0.5 C11.8873115,0.5 9.31143528,2.35040141 9.31143528,4.82641472 L9.31143528,7.84286274 L4.97180341,7.84286274 C2.63089877,7.84286274 0.5,10.0457216 0.5,12.4659291 L0.5,22.3655767 C0.5,24.4553554 1.92451537,26.0076366 3.43714509,26.4922655 L3.43714509,30.5 L9.95613863,26.9343059 L21.8368905,26.9343059 C24.0074408,26.9343059 25.4657333,25.0971216 25.4657333,22.3655767 L25.4657333,19.5914431 L26.0928138,19.5914431 L31.7600352,22.748972 C31.8598982,22.7959663 32.7873102,23.3286388 32.808596,23.3074284 C32.8298819,23.286218 32.808596,22.3377717 32.808596,22.0851772 L32.808596,18.8468768 C34.3212258,18.3637165 35.7457411,16.8114353 35.7457411,14.7216565 L35.7457411,4.82641472 C35.7457411,2.52075583 33.5546309,0.5 31.056589,0.5 L14.1915019,0.5 Z M13.6407872,13.4469356 C13.6407872,14.1195418 14.1753476,14.6673194 14.8317995,14.6673194 C15.4853143,14.6673194 16.0169375,14.1195418 16.0169375,13.4469356 C16.0169375,12.7743294 15.4853143,12.2280204 14.8317995,12.2280204 C14.1753476,12.2280204 13.6407872,12.7743294 13.6407872,13.4469356 Z M16.8217153,13.4469356 C16.8217153,14.1195418 17.3577443,14.6673194 18.0156648,14.6673194 C18.6706481,14.6673194 19.2052085,14.1195418 19.2052085,13.4469356 C19.2052085,12.7743294 18.6706481,12.2280204 18.0156648,12.2280204 C17.3577443,12.2280204 16.8217153,12.7743294 16.8217153,13.4469356 Z M20.0129234,13.4469356 C20.0129234,14.1195418 20.5474838,14.6673194 21.2039358,14.6673194 C21.8574506,14.6673194 22.3890738,14.1195418 22.3890738,13.4469356 C22.3890738,12.7743294 21.8574506,12.2280204 21.2039358,12.2280204 C20.5474838,12.2280204 20.0129234,12.7743294 20.0129234,13.4469356 Z" id="dialog" fill="url(#linearGradient-1)"></path>
    </g>
</svg>