<?xml version="1.0" encoding="UTF-8"?>
<svg width="51px" height="19px" viewBox="0 0 51 19" version="1.1" xmlns="http://www.w3.org/2000/svg" xmlns:xlink="http://www.w3.org/1999/xlink">
    <!-- Generator: Sketch 43.1 (39012) - http://www.bohemiancoding.com/sketch -->
    <title>glasses</title>
    <desc>Created with Sketch.</desc>
    <defs>
        <linearGradient x1="0%" y1="0%" x2="101.999998%" y2="100.999999%" id="linearGradient-1">
            <stop stop-color="#3023AE" offset="0%"></stop>
            <stop stop-color="#C96DD8" offset="100%"></stop>
        </linearGradient>
    </defs>
    <g id="Page-1" stroke="none" stroke-width="1" fill="none" fill-rule="evenodd">
        <path d="M36.803529,16.323306 C36.3187238,16.323306 35.8489348,16.267532 35.3920167,16.1731451 L43.4856884,8.07732818 C43.5007045,8.09663458 43.5092852,8.11808614 43.5243012,8.13310222 C43.6101075,8.5685688 43.659446,9.01476115 43.659446,9.46953412 C43.659446,13.2492981 40.583293,16.323306 36.803529,16.323306 Z M29.9476119,9.46953412 C29.9476119,5.68977008 33.023765,2.61361706 36.803529,2.61361706 C39.2768933,2.61361706 41.4284843,3.94146833 42.6340617,5.9107211 C42.6211908,5.92359204 42.6040295,5.92788235 42.5911586,5.94075328 L33.2382805,15.2936314 C31.273318,14.088054 29.9476119,11.9407533 29.9476119,9.46953412 Z M15.2776084,16.323306 C12.9822919,16.323306 10.9572651,15.1799381 9.71307493,13.4423621 L19.3727103,4.00796815 C21.0352058,5.26073898 22.1292351,7.2321369 22.1292351,9.46953412 C22.1292351,13.2492981 19.0552272,16.323306 15.2776084,16.323306 Z M15.2776084,2.61361706 C16.0091064,2.61361706 16.7019916,2.76163279 17.3626995,2.97400319 L8.73273885,11.4023192 C8.55040063,10.7866596 8.4216913,10.1452581 8.4216913,9.46953412 C8.4216913,5.68977008 11.4978443,2.61361706 15.2776084,2.61361706 Z M48.2758207,7.04550837 C48.1127889,6.63578367 47.7180803,6.36763923 47.2804686,6.36763923 L45.2189741,6.36763923 C43.949042,2.93753555 40.6712444,0.468461538 36.803529,0.468461538 C32.0734611,0.468461538 28.225052,4.14954842 27.8711014,8.79166497 C27.6823277,8.62434284 27.4399251,8.51279475 27.1653452,8.51279475 L24.4481482,8.51279475 C24.3537614,8.51279475 24.2701003,8.54497209 24.1821489,8.5685688 C23.7209405,4.03156486 19.9283055,0.468461538 15.2776084,0.468461538 C11.4098929,0.468461538 8.12995015,2.93753555 6.86216324,6.36763923 L4.06059012,6.36763923 C3.61439777,6.36763923 3.21539885,6.64436429 3.05880249,7.06266962 L0.705566883,13.3072173 C0.497486797,13.8585223 0.778502171,14.4763271 1.3319523,14.6865524 C1.45637132,14.7358909 1.58508065,14.7551973 1.70949967,14.7551973 C2.14282108,14.7551973 2.55254579,14.4913432 2.71343245,14.0601669 L4.80495909,8.51279475 L6.37306778,8.51279475 C6.33874529,8.83242293 6.27653578,9.14132532 6.27653578,9.46953412 C6.27653578,14.4312788 10.3137185,18.4684615 15.2776084,18.4684615 C19.8510799,18.4684615 23.5965215,15.0233418 24.1606974,10.6000311 C24.2529391,10.6279181 24.3451808,10.6579503 24.4481482,10.6579503 L27.1653452,10.6579503 C27.4485057,10.6579503 27.7016341,10.5421119 27.8946981,10.364064 C28.3516162,14.9010679 32.1463963,18.4684615 36.803529,18.4684615 C41.7652737,18.4684615 45.8046016,14.4312788 45.8046016,9.46953412 C45.8046016,9.14132532 45.7423921,8.83242293 45.7059244,8.51279475 L46.5532608,8.51279475 L48.7692065,14.0794733 C48.9343835,14.4999238 49.3376727,14.7551973 49.7645587,14.7551973 C49.8975583,14.7551973 50.0305579,14.7316006 50.1614124,14.6801169 C50.7105722,14.461311 50.9808618,13.8370708 50.7599108,13.2879109 L48.2758207,7.04550837 Z" id="glasses" fill="url(#linearGradient-1)"></path>
    </g>
</svg>