<?xml version="1.0" encoding="UTF-8"?>
<svg width="242px" height="152px" viewBox="0 0 242 152" version="1.1" xmlns="http://www.w3.org/2000/svg" xmlns:xlink="http://www.w3.org/1999/xlink">
    <!-- Generator: Sketch 43.1 (39012) - http://www.bohemiancoding.com/sketch -->
    <title>nbcuxlab-sm</title>
    <desc>Created with Sketch.</desc>
    <defs></defs>
    <g id="Page-1" stroke="none" stroke-width="1" fill="none" fill-rule="evenodd">
        <g id="nbcuxlab-sm" fill-rule="nonzero">
            <path d="M131.716,73.4343 L82.196,149.9873 C76.422,151.1373 70.124,151.7123 63.302,151.7123 C42.949,151.7123 27.312,146.5053 16.387,136.0913 C5.462,125.6773 0,110.7043 0,91.1663 L0,0.3993 L40.533,0.3993 L40.533,88.0013 C40.533,98.5533 42.507,106.2103 46.455,110.9743 C50.403,115.7403 56.222,118.1223 63.914,118.1223 C72.15,118.1223 78.122,115.7573 81.833,111.0263 C85.542,106.2953 87.398,98.5533 87.398,87.7973 L87.398,5.1013 L131.716,73.4343 Z" id="Combined-Shape" fill="#222222"></path>
            <path d="M212.344318,147.624678 L242.010243,147.624678 L192.278369,76.0227629 L238.515031,1.62467812 L193.476727,1.62467812 L168.111474,46.762845 L141.747589,1.62467812 L98.0075072,1.62467812 L143.545127,72.9270037 L95.1114744,147.624678 L122.844532,147.624678 C119.046699,146.398854 115.682713,143.076779 114.5929,139.2317 C113.1989,134.6027 114.5509,129.8217 117.6159,126.4477 C120.5759,123.3977 124.3809,122.1227 128.6099,122.5987 C124.6349,119.8937 122.9639,115.4167 123.5359,110.6137 C124.0649,106.4407 127.0869,102.3737 130.9559,100.7087 C135.3739,98.7187 140.9539,99.8007 144.4209,103.1517 C143.7019,100.7087 143.3229,97.2047 144.3159,94.6947 C145.4989,90.7367 149.3459,87.2117 153.2569,86.3897 C158.4789,85.2657 163.4469,87.2327 166.4479,91.7107 C167.0189,92.5547 167.3579,93.5067 167.8009,94.3937 C169.3019,90.1097 173.6349,86.5617 178.0329,86.1077 C182.5769,85.5237 186.8689,87.4707 189.7229,91.2997 C191.9429,94.4787 192.7029,99.2157 191.2659,103.0447 L191.4359,103.0447 C194.7319,100.0817 199.7219,98.9997 203.9709,100.6437 C208.0299,101.9847 211.4749,106.3107 212.0249,110.5717 C212.6369,115.2867 211.0309,119.4187 207.4589,122.4687 C212.8699,122.1437 218.0059,125.0197 220.2259,130.0607 C222.1719,134.4517 221.6019,140.3347 218.3029,143.9037 C216.9719,145.2447 215.5549,146.3687 213.9699,147.0397 C213.444343,147.272549 212.901946,147.466791 212.344318,147.624678 Z" id="Combined-Shape" fill="#222222"></path>
            <path d="M178.487256,137.544734 L186.669348,118.24917 L190.551033,109.263003 C192.123812,106.35897 195.084151,104.508022 198.314404,104.456192 C201.410095,104.456192 204.153553,105.934124 205.894137,108.58372 C207.68538,111.233316 207.785114,115.565021 205.994662,118.24917 C205.192047,119.505648 204.003954,120.626268 202.782615,121.424917 L178.487256,137.544734 Z" id="Fill-1" fill="#0089CF" transform="translate(192.887920, 121.000463) rotate(2.000000) translate(-192.887920, -121.000463) "></path>
            <path d="M174.531266,91.897792 C171.680684,93.7199754 170.205014,96.7496013 170.422398,100.086992 C170.422398,100.086992 170.993624,103.713254 171.144366,105.126135 L174.766104,128.281639 L175.303216,131.362427 L187.345794,103.117404 C187.831336,101.976867 188.049514,100.666312 188.065382,99.3888159 C188.015399,95.9325705 185.785233,92.5448049 182.581601,91.2507792 C180.116597,90.0929252 176.745564,90.4675945 174.531266,91.897792 Z" id="Fill-3" fill="#635FAA" transform="translate(179.233380, 110.964414) rotate(4.000000) translate(-179.233380, -110.964414) "></path>
            <path d="M160.242462,90.808297 C156.933049,89.9601653 153.722066,91.0243669 151.445004,93.5356982 C149.3152,95.9309208 148.790499,99.823254 150.035985,102.782872 L161.619704,130.442119 L166.566773,100.503759 C166.631101,99.3403645 166.681478,98.060093 166.353638,96.9951224 C165.664628,94.1516126 163.043449,91.4903396 160.242462,90.808297 Z" id="Fill-5" fill="#CE1041" transform="translate(157.992731, 110.481506) rotate(-4.000000) translate(-157.992731, -110.481506) "></path>
            <path d="M128.065289,112.028109 C128.422134,108.716621 131.055872,105.474507 134.19916,104.473804 C137.426837,103.473899 140.943042,104.267285 143.288252,106.664185 C144.273594,107.596313 144.885212,108.699877 145.393957,109.837727 L156.999447,137.709871 L131.276891,120.254597 C128.813538,118.133587 127.709248,115.305308 128.065289,112.028109 Z" id="Fill-7" fill="#F36F21" transform="translate(142.499724, 120.880662) rotate(-3.000000) translate(-142.499724, -120.880662) "></path>
            <path d="M119.841821,139.991598 C118.343336,137.102657 118.733319,133.002175 120.747057,130.439959 C122.941211,127.830845 126.11781,126.518472 129.316469,127.161762 C130.620356,127.371241 131.713888,127.927769 132.742028,128.568714 L157.2228,144.897952 L126.893839,144.891699 C123.747178,144.537616 121.321397,142.854745 119.841821,139.991598 Z" id="Fill-9" fill="#FDB813"></path>
            <path d="M213.97007,140.339802 C215.393376,137.595801 215.022957,133.701042 213.110999,131.267374 C211.026178,128.789162 208.008951,127.542631 204.970022,128.153646 C203.7323,128.352616 202.693632,128.881222 201.716326,129.49001 L178.465267,145 L207.271856,144.994061 C210.262143,144.657742 212.564725,143.059302 213.97007,140.339802 Z" id="Fill-12" fill="#0CB14B"></path>
        </g>
    </g>
</svg>