<?xml version="1.0" encoding="UTF-8"?>
<svg width="38px" height="26px" viewBox="0 0 38 26" version="1.1" xmlns="http://www.w3.org/2000/svg" xmlns:xlink="http://www.w3.org/1999/xlink">
    <!-- Generator: Sketch 43.1 (39012) - http://www.bohemiancoding.com/sketch -->
    <title>pain-point</title>
    <desc>Created with Sketch.</desc>
    <defs>
        <linearGradient x1="0%" y1="0%" x2="101.999998%" y2="100.999999%" id="linearGradient-1">
            <stop stop-color="#3023AE" offset="0%"></stop>
            <stop stop-color="#C96DD8" offset="100%"></stop>
        </linearGradient>
    </defs>
    <g id="Page-1" stroke="none" stroke-width="1" fill="none" fill-rule="evenodd">
        <path d="M36.0034934,11.3023082 C36.1922104,10.8525622 36.7054499,10.640917 37.1587234,10.829634 C37.6084694,11.0165872 37.8201146,11.5333542 37.6296339,11.9831003 C35.5537474,16.9285428 28.4953803,20.3818868 20.4652091,20.3818868 C14.6837681,20.3818868 9.41909401,18.5864302 6.142121,15.7398024 C6.142121,15.7398024 4.6182117,14.0306526 4.10304032,13.0334486 C3.94297084,12.8409818 2.98711435,11.2187958 3.77169489,10.829634 C4.22320463,10.6426807 4.73820792,10.8525622 4.92516117,11.3023082 C6.29203634,14.5545893 10.2709659,17.0643485 15.2975391,18.0996462 C12.9518049,16.459396 11.4050314,13.7485739 11.4050314,10.6761912 C11.4050314,7.60557229 12.9500412,4.89651387 15.2940117,3.25626366 C10.2709659,4.29332509 6.29203634,6.80308428 4.92516117,10.0536016 C4.73820792,10.4998202 4.21438608,10.7114654 3.77169489,10.5245122 C3.32194886,10.3375589 3.11030368,9.81902822 3.29902064,9.3710459 C5.3766709,4.42736704 12.4350379,0.974023046 20.4652091,0.974023046 C28.4953803,0.974023046 35.5519837,4.42736704 37.6296339,9.3710459 C37.8201146,9.81902822 37.6084694,10.3375589 37.1587234,10.5245122 C37.0476097,10.5703686 36.9312048,10.5932969 36.8165637,10.5932969 C36.4726402,10.5932969 36.1445902,10.3904702 36.0034934,10.0536016 C34.6383819,6.80308428 30.6594524,4.29332509 25.6346429,3.25626366 C27.9786133,4.89651387 29.5253869,7.60557229 29.5253869,10.6761912 C29.5253869,13.7485739 27.9768496,16.459396 25.6311155,18.0996462 C30.6576887,17.0643485 34.6383819,14.5545893 36.0034934,11.3023082 Z M4.02037799,13.6914767 C4.05565219,13.76908 4.12443687,13.9066493 4.2179135,14.0883114 C5.625354,16.8961376 7.19858324,20.353009 6.889934,22.1819762 C6.52308234,24.3495757 4.74526276,25.2014476 4.09092638,25.3478355 C4.02743283,25.3619452 3.96393927,25.369 3.898682,25.369 C3.83695216,25.369 3.7734586,25.3619452 3.71349246,25.3478355 C3.40837065,25.2843419 0.727531594,24.6423515 0.309532347,22.1819762 C0.00441053335,20.3882832 1.14905826,16.9455215 2.18082856,14.1482776 C2.24608582,13.9701429 2.29370599,13.8413921 2.31839793,13.76908 C2.40658342,13.3722452 2.7575617,13.0777057 3.17908836,13.0777057 C3.57239567,13.0777057 3.90573684,13.336971 4.02037799,13.6914767 Z M5.14915233,21.8874366 C5.25321121,21.277193 4.99218214,19.8009678 3.30431177,16.2418012 C2.09617048,19.7639299 1.94272772,21.2577922 2.04855031,21.8856729 C2.23021243,22.9527174 3.36604161,23.411282 3.85811668,23.5629611 C4.21614979,23.4059909 4.97101763,22.94919 5.14915233,21.8874366 Z M19.8285099,7.15582626 C19.5710082,5.93181159 18.4845629,5.0076276 17.1811813,5.0076276 C15.6890827,5.0076276 14.4738866,6.22282372 14.4738866,7.7149223 C14.4738866,8.98302972 15.3522141,10.0430194 16.5321361,10.3357952 L16.8231482,10.3869428 C16.9413168,10.4028162 17.0577216,10.4239807 17.1811813,10.4239807 C17.6415096,10.4239807 18.0683274,10.2969936 18.4492887,10.094167 C18.5833307,10.0218549 18.7173726,9.93896049 18.8496509,9.8331379 C18.9060896,9.78728144 18.9607646,9.7449524 19.0154396,9.69556853 C19.1018614,9.61267416 19.1812283,9.52625238 19.2517767,9.43983059 C19.2870509,9.39750155 19.3205614,9.36046364 19.3523082,9.31813461 C19.4246203,9.21936685 19.4845864,9.1205991 19.5374977,9.02183134 C19.5639534,8.97597488 19.590409,8.93364585 19.6115735,8.88602568 C19.6591937,8.79254905 19.6944679,8.69730872 19.7279784,8.60383209 C19.7473792,8.54562967 19.76678,8.48566353 19.7826534,8.42569739 C19.8073453,8.34103932 19.8285099,8.25461753 19.8426195,8.17525059 C19.8673115,8.03944493 19.8831849,7.89834813 19.8867123,7.75548763 L19.8867123,7.67435697 C19.8831849,7.50680453 19.8673115,7.34277951 19.8355647,7.18580933 L19.8285099,7.15582626 Z M13.1687413,10.6761912 C13.1687413,14.6992135 16.4404231,17.9726591 20.4652091,17.9726591 C24.4882314,17.9726591 27.761677,14.6992135 27.761677,10.6761912 C27.761677,6.65493265 24.4882314,3.38148707 20.4652091,3.38148707 C19.9078768,3.38148707 19.3734727,3.45556288 18.8531783,3.57549516 C20.0472099,4.05875167 20.9731576,5.04995664 21.3946843,6.27749873 C23.45117,6.60202135 24.9362138,8.37631352 24.9362138,10.6761912 C24.9362138,13.1630222 22.8885466,15.2653644 20.4652091,15.2653644 C18.1212387,15.2653644 16.4139675,13.9637465 16.0682803,12.0289567 C14.8477931,11.7132527 13.838951,10.896655 13.2569268,9.81020967 C13.2216526,10.0976944 13.1687413,10.379888 13.1687413,10.6761912 Z" id="pain-point" fill="url(#linearGradient-1)"></path>
    </g>
</svg>