<?xml version="1.0" encoding="UTF-8"?>
<svg width="25px" height="30px" viewBox="0 0 25 30" version="1.1" xmlns="http://www.w3.org/2000/svg" xmlns:xlink="http://www.w3.org/1999/xlink">
    <!-- Generator: Sketch 43.1 (39012) - http://www.bohemiancoding.com/sketch -->
    <title>process</title>
    <desc>Created with Sketch.</desc>
    <defs>
        <linearGradient x1="0%" y1="0%" x2="101.999998%" y2="100.999999%" id="linearGradient-1">
            <stop stop-color="#3023AE" offset="0%"></stop>
            <stop stop-color="#C96DD8" offset="100%"></stop>
        </linearGradient>
    </defs>
    <g id="Page-1" stroke="none" stroke-width="1" fill="none" fill-rule="evenodd">
        <path d="M22.7272727,27.1439394 C22.7272727,28.4848485 22.019697,28.4848485 21.7530303,28.4848485 L2.85606061,28.4848485 C2.06666667,28.4848485 1.51515152,27.9333333 1.51515152,27.1439394 L1.51515152,25.4545455 L1.51515152,23.9393939 L1.51515152,2.85909091 C1.51515152,2.18939394 1.91515152,1.51515152 2.80909091,1.51515152 L21.7530303,1.51515152 C22.019697,1.51515152 22.7272727,1.51515152 22.7272727,2.85909091 L22.7272727,27.1439394 Z M2.80909091,0 L21.7530303,0 C23.2878788,0 24.2424242,1.09545455 24.2424242,2.85909091 L24.2424242,27.1439394 C24.2424242,28.9060606 23.2878788,30 21.7530303,30 L2.85606061,30 C1.22878788,30 0,28.7727273 0,27.1439394 L0,2.85909091 C0,1.22878788 1.20757576,0 2.80909091,0 Z M3.81212121,10.2515152 C3.59393939,10.4787879 3.48030303,10.7757576 3.49242424,11.0590909 C3.49242424,11.7075758 4.01515152,12.2363636 4.63181818,12.2363636 L4.67727273,12.2363636 C5.31969697,12.2363636 5.84090909,11.7090909 5.84090909,11.0590909 C5.84090909,10.4151515 5.31212121,9.89090909 4.66060606,9.89090909 C4.34090909,9.89090909 4.03181818,10.0227273 3.81212121,10.2515152 Z M4.66060606,6.96666667 C4.02575758,6.96666667 3.50909091,7.46363636 3.48333333,8.12727273 C3.48333333,8.78333333 4.01060606,9.31515152 4.66060606,9.31515152 L4.68939394,9.31515152 C5.33484848,9.29090909 5.84090909,8.77424242 5.84090909,8.13636364 C5.84090909,7.49090909 5.31969697,6.96666667 4.66060606,6.96666667 Z M4.66060606,4.03181818 C4.34242424,4.03181818 4.03333333,4.16363636 3.81363636,4.39090909 C3.59393939,4.61969697 3.48030303,4.91818182 3.49242424,5.17424242 C3.48030303,5.49242424 3.59545455,5.79393939 3.81666667,6.02272727 C4.03636364,6.25 4.34393939,6.38181818 4.66060606,6.38181818 C5.31212121,6.38181818 5.84090909,5.85454545 5.84090909,5.20757576 C5.84090909,4.55909091 5.31212121,4.03181818 4.66060606,4.03181818 Z M4.66060606,21.7575758 C4.34242424,21.7575758 4.03333333,21.8893939 3.81363636,22.119697 C3.59393939,22.3469697 3.48030303,22.6454545 3.49242424,22.9287879 C3.49242424,23.5787879 4.01515152,24.1075758 4.63181818,24.1075758 L4.63333333,24.1075758 L4.67727273,24.1075758 C5.31969697,24.1075758 5.84090909,23.5787879 5.84090909,22.9287879 C5.84090909,22.2833333 5.31212121,21.7575758 4.66060606,21.7575758 Z M4.66060606,18.8333333 C4.03636364,18.8333333 3.50909091,19.3424242 3.48333333,19.9984848 C3.48333333,20.6515152 4.01060606,21.1818182 4.66060606,21.1818182 L4.68030303,21.1818182 C5.33181818,21.1666667 5.84090909,20.65 5.84090909,20.0060606 C5.84090909,19.3590909 5.31969697,18.8333333 4.66060606,18.8333333 Z M4.66060606,15.9015152 C4.34242424,15.9015152 4.03484848,16.0333333 3.81515152,16.2621212 C3.59393939,16.4909091 3.48030303,16.7893939 3.49242424,17.0439394 C3.48030303,17.3621212 3.59545455,17.6651515 3.81666667,17.8939394 C4.03636364,18.1212121 4.34393939,18.2530303 4.66060606,18.2530303 C5.31212121,18.2530303 5.84090909,17.7272727 5.84090909,17.080303 C5.84090909,16.430303 5.31212121,15.9015152 4.66060606,15.9015152 Z M19.5757576,9.89090909 C19.2590909,9.89090909 18.9515152,10.0227273 18.730303,10.2515152 C18.5121212,10.4787879 18.3984848,10.7757576 18.4090909,11.0590909 C18.4090909,11.7075758 18.9318182,12.2363636 19.5454545,12.2363636 L19.5469697,12.2363636 L19.5924242,12.2363636 C20.2348485,12.2363636 20.7590909,11.7090909 20.7590909,11.0590909 C20.7590909,10.4151515 20.2287879,9.89090909 19.5757576,9.89090909 Z M19.5757576,9.31515152 L19.6030303,9.31515152 C20.2515152,9.29090909 20.7590909,8.77424242 20.7590909,8.13636364 C20.7590909,7.49090909 20.2348485,6.96666667 19.5757576,6.96666667 C18.9530303,6.96666667 18.4257576,7.47424242 18.4015152,8.12727273 C18.4015152,8.78333333 18.9272727,9.31515152 19.5757576,9.31515152 Z M19.5757576,4.03181818 C19.2590909,4.03181818 18.9515152,4.16363636 18.730303,4.39242424 C18.5121212,4.61969697 18.3984848,4.91818182 18.4090909,5.17424242 C18.3984848,5.49242424 18.5136364,5.79393939 18.7348485,6.02272727 C18.9545455,6.25 19.2606061,6.38181818 19.5757576,6.38181818 C20.2287879,6.38181818 20.7590909,5.85454545 20.7590909,5.20757576 C20.7590909,4.55909091 20.2287879,4.03181818 19.5757576,4.03181818 Z M19.5757576,21.7575758 C19.2606061,21.7575758 18.9530303,21.8893939 18.7318182,22.119697 C18.5121212,22.3484848 18.3984848,22.6454545 18.4090909,22.9287879 C18.4090909,23.5787879 18.9318182,24.1075758 19.5454545,24.1075758 L19.5469697,24.1075758 L19.5924242,24.1075758 C20.2348485,24.1075758 20.7590909,23.5787879 20.7590909,22.9287879 C20.7590909,22.2833333 20.2287879,21.7575758 19.5757576,21.7575758 Z M19.5757576,21.1818182 L19.5954545,21.1818182 C20.2469697,21.1666667 20.7590909,20.65 20.7590909,20.0060606 C20.7590909,19.3590909 20.2348485,18.8333333 19.5757576,18.8333333 C18.9545455,18.8333333 18.4272727,19.3424242 18.4015152,19.9984848 C18.4015152,20.6515152 18.9272727,21.1818182 19.5757576,21.1818182 Z M19.5757576,15.9015152 C19.2606061,15.9015152 18.9530303,16.0333333 18.7318182,16.2621212 C18.5121212,16.4909091 18.3984848,16.7893939 18.4090909,17.0439394 C18.3984848,17.3621212 18.5136364,17.6636364 18.7348485,17.8939394 C18.9545455,18.1212121 19.2606061,18.2530303 19.5757576,18.2530303 C20.2287879,18.2530303 20.7590909,17.7272727 20.7590909,17.080303 C20.7590909,16.430303 20.2287879,15.9015152 19.5757576,15.9015152 Z M15.4242424,6.51363636 C16.4712121,6.51363636 17.3242424,7.36515152 17.3242424,8.41363636 C17.3242424,9.10757576 16.930303,9.69090909 16.3727273,10.0212121 C16.5469697,10.1606061 16.6666667,10.3651515 16.6666667,10.6060606 L16.6666667,13.3984848 C16.6666667,13.5969697 16.5878788,13.7878788 16.4484848,13.9287879 L12.9242424,17.5212121 C12.9106061,17.5348485 12.8939394,17.5393939 12.8787879,17.5515152 L12.8787879,22.1227273 C13.5484848,22.4151515 14.0212121,23.080303 14.0212121,23.8560606 C14.0212121,24.9045455 13.1681818,25.7575758 12.1212121,25.7575758 C11.0742424,25.7575758 10.2212121,24.9045455 10.2212121,23.8560606 C10.2212121,23.080303 10.6939394,22.4151515 11.3636364,22.1227273 L11.3636364,19.4621212 L7.78787879,15.7515152 C7.65151515,15.6106061 7.57575758,15.4212121 7.57575758,15.2257576 L7.57575758,12.1212121 C7.57575758,11.9757576 7.62727273,11.8469697 7.69848485,11.7318182 C7.23787879,11.3863636 6.92121212,10.8606061 6.92121212,10.2409091 C6.92121212,9.19242424 7.77121212,8.33939394 8.81515152,8.33939394 C9.86515152,8.33939394 10.7181818,9.19242424 10.7181818,10.2409091 C10.7181818,11.1924242 10.0015152,11.95 9.08333333,12.0848485 C9.08484848,12.0969697 9.09090909,12.1090909 9.09090909,12.1212121 L9.09090909,14.919697 L11.3636364,17.2772727 L11.3636364,6.80151515 C10.6939394,6.50606061 10.2212121,5.83939394 10.2212121,5.06212121 C10.2212121,4.01666667 11.0742424,3.16666667 12.1212121,3.16666667 C13.1681818,3.16666667 14.0212121,4.01666667 14.0212121,5.06212121 C14.0212121,5.83939394 13.5484848,6.50606061 12.8787879,6.80151515 L12.8787879,15.4060606 L15.1515152,13.0893939 L15.1515152,10.6060606 C15.1515152,10.4848485 15.1863636,10.3757576 15.2363636,10.2742424 C14.2818182,10.1742424 13.5272727,9.39393939 13.5272727,8.41363636 C13.5272727,7.36515152 14.3772727,6.51363636 15.4242424,6.51363636 Z M15.0424242,8.41363636 C15.0439394,8.84242424 15.8106061,8.83787879 15.8090909,8.41363636 C15.8090909,8.1969697 15.6393939,8.02878788 15.4242424,8.02878788 C15.2136364,8.02878788 15.0424242,8.20151515 15.0424242,8.41363636 Z M11.7363636,23.8560606 C11.7363636,24.2863636 12.5060606,24.2848485 12.5060606,23.8560606 C12.5060606,23.6424242 12.3378788,23.4757576 12.1212121,23.4757576 C11.9090909,23.4757576 11.7363636,23.6469697 11.7363636,23.8560606 Z M12.1212121,4.68181818 C11.9090909,4.68181818 11.7363636,4.8530303 11.7363636,5.06212121 C11.7363636,5.48484848 12.5060606,5.48636364 12.5060606,5.06212121 C12.5060606,4.84848485 12.3378788,4.68181818 12.1212121,4.68181818 Z M8.81515152,9.85454545 C8.60757576,9.85454545 8.43636364,10.0272727 8.43636364,10.2409091 C8.43636364,10.6681818 9.2030303,10.6590909 9.2030303,10.2409091 C9.2030303,10.0272727 9.02878788,9.85454545 8.81515152,9.85454545 Z" id="process" fill="url(#linearGradient-1)"></path>
    </g>
</svg>