<?xml version="1.0" encoding="UTF-8"?>
<svg width="42px" height="29px" viewBox="0 0 42 29" version="1.1" xmlns="http://www.w3.org/2000/svg" xmlns:xlink="http://www.w3.org/1999/xlink">
    <!-- Generator: Sketch 43.1 (39012) - http://www.bohemiancoding.com/sketch -->
    <title>wants</title>
    <desc>Created with Sketch.</desc>
    <defs>
        <linearGradient x1="0%" y1="0%" x2="101.999998%" y2="100.999999%" id="linearGradient-1">
            <stop stop-color="#3023AE" offset="0%"></stop>
            <stop stop-color="#C96DD8" offset="100%"></stop>
        </linearGradient>
    </defs>
    <g id="Page-1" stroke="none" stroke-width="1" fill="none" fill-rule="evenodd">
        <path d="M14.4810924,17.4035759 C14.4810924,16.438247 15.2629732,15.6528041 16.226521,15.6528041 C17.1900689,15.6528041 17.9737307,16.438247 17.9737307,17.4035759 C17.9737307,18.3653427 17.1900689,19.1490045 16.226521,19.1490045 C15.2629732,19.1490045 14.4810924,18.3653427 14.4810924,17.4035759 Z M20.9160247,15.6545851 C21.8866967,15.6545851 22.6685775,16.440028 22.6685775,17.4035759 C22.6685775,18.3653427 21.8849157,19.1490045 20.9195868,19.1490045 C19.9542579,19.1490045 19.1705961,18.3653427 19.1705961,17.4035759 C19.1705961,16.440028 19.9524768,15.6545851 20.9160247,15.6545851 Z M25.6126526,19.1490045 C24.6491047,19.1490045 23.8654429,18.3653427 23.8654429,17.4035759 C23.8654429,16.438247 24.6491047,15.6528041 25.6126526,15.6528041 C26.5779815,15.6528041 27.3616433,16.438247 27.3616433,17.4035759 C27.3616433,18.3653427 26.5779815,19.1490045 25.6126526,19.1490045 Z M9.62060793,16.2298642 L2.70123011,6.87757255 C2.2630919,6.15624745 2.07251959,5.44738969 2.07251959,4.71894039 C2.07251959,2.43563477 3.93015436,0.578 6.21167894,0.578 C8.01053906,0.578 9.59567324,1.72677701 10.1549228,3.43302256 C10.3080931,3.90143861 10.0516219,4.40369461 9.58498694,4.55686488 C9.11657089,4.7118162 8.61431489,4.453564 8.46114462,3.98871005 C8.14233674,3.01269485 7.23756352,2.35904963 6.21167894,2.35904963 C4.9115127,2.35904963 3.85356922,3.41699311 3.85356922,4.71894039 C3.85356922,5.1891375 3.99249109,5.6450862 4.25964854,6.03869817 L4.37363572,6.20967894 L9.62060793,13.246606 L15.0599335,5.924711 C15.2754405,5.56493897 15.3894277,5.15173545 15.3894277,4.71894039 C15.3894277,3.41699311 14.3314842,2.35904963 13.0295369,2.35904963 C12.5379672,2.35904963 12.1390121,1.96009451 12.1390121,1.46852482 C12.1390121,0.976955118 12.5379672,0.578 13.0295369,0.578 C15.3128426,0.578 17.1704773,2.43563477 17.1704773,4.71894039 C17.1704773,5.45985704 16.9763429,6.17583899 16.6094467,6.80276846 L16.6094467,6.87757255 L16.3618808,7.17144574 L9.62060793,16.2298642 Z M17.7742531,24.9838418 C18.2676039,24.9838418 18.664778,25.382797 18.664778,25.8743667 C18.664778,28.3820845 11.7436191,28.578 9.62060793,28.578 C7.50115887,28.578 0.58,28.3820845 0.58,25.8743667 C0.58,25.382797 0.978955118,24.9838418 1.47052482,24.9838418 C1.89619568,24.9838418 2.25418665,25.2830582 2.33967704,25.6837943 C2.83480883,26.0863116 5.38170981,26.7969504 9.62060793,26.7969504 C13.8612871,26.7969504 16.4099691,26.0863116 16.9051009,25.6837943 C16.9923724,25.2830582 17.3485823,24.9838418 17.7742531,24.9838418 Z M8.45223937,18.9211489 C8.45223937,18.4295792 8.85119449,18.0306241 9.34276419,18.0306241 C9.83433389,18.0306241 10.233289,18.4295792 10.233289,18.9211489 L10.233289,22.4832482 C10.233289,22.9748179 9.83433389,23.373773 9.34276419,23.373773 C8.85119449,23.373773 8.45223937,22.9748179 8.45223937,22.4832482 L8.45223937,18.9211489 Z M25.2938447,6.8722294 L25.2956257,6.87044835 C24.8592686,6.15268535 24.6704773,5.44560864 24.6704773,4.71894039 C24.6704773,2.43563477 26.5281121,0.578 28.8131988,0.578 C30.6084968,0.578 32.1918499,1.72677701 32.7528806,3.43302256 C32.9042698,3.90143861 32.6495797,4.40369461 32.1811636,4.55686488 C31.7127476,4.7118162 31.2104916,4.453564 31.0573213,3.98871005 C30.7402945,3.01269485 29.8373023,2.35904963 28.8131988,2.35904963 C27.5094704,2.35904963 26.451527,3.41699311 26.451527,4.71894039 C26.451527,5.1891375 26.5904488,5.6450862 26.8558252,6.03869817 L26.9163809,6.1366559 L32.2185657,13.246606 L37.5741819,6.04760342 C37.8484635,5.65042935 37.9856044,5.1962617 37.9856044,4.71894039 C37.9856044,3.41699311 36.9276609,2.35904963 35.6274947,2.35904963 C35.1341439,2.35904963 34.7369698,1.96009451 34.7369698,1.46852482 C34.7369698,0.976955118 35.1341439,0.578 35.6274947,0.578 C37.9090192,0.578 39.766654,2.43563477 39.766654,4.71894039 C39.766654,5.55425267 39.5208692,6.35572501 39.0595773,7.03608597 L38.9918974,7.18925623 L38.9455901,7.17678889 L32.2185657,16.2298642 L25.2938447,6.8722294 Z M40.3686488,24.9838418 C40.8602185,24.9838418 41.2591736,25.382797 41.2591736,25.8743667 C41.2591736,28.3820845 34.3380147,28.578 32.2185657,28.578 C30.0973355,28.578 23.1779577,28.3820845 23.1779577,25.8743667 C23.1779577,25.382797 23.5751318,24.9838418 24.0684825,24.9838418 C24.4941534,24.9838418 24.8503633,25.2830582 24.9376348,25.6837943 C25.4309855,26.0863116 27.9796675,26.7969504 32.2185657,26.7969504 C36.4574638,26.7969504 39.0043648,26.0863116 39.4994966,25.6837943 C39.5849869,25.2830582 39.9429779,24.9838418 40.3686488,24.9838418 Z M31.6058846,18.9211489 C31.6058846,18.4295792 32.0048397,18.0306241 32.4964094,18.0306241 C32.9879791,18.0306241 33.3869342,18.4295792 33.3869342,18.9211489 L33.3869342,22.4832482 C33.3869342,22.9748179 32.9879791,23.373773 32.4964094,23.373773 C32.0048397,23.373773 31.6058846,22.9748179 31.6058846,22.4832482 L31.6058846,18.9211489 Z" id="wants" fill="url(#linearGradient-1)"></path>
    </g>
</svg>