<?xml version="1.0" encoding="UTF-8"?>
<svg width="31px" height="31px" viewBox="0 0 31 31" version="1.1" xmlns="http://www.w3.org/2000/svg" xmlns:xlink="http://www.w3.org/1999/xlink">
    <!-- Generator: Sketch 43.1 (39012) - http://www.bohemiancoding.com/sketch -->
    <title>wireframe</title>
    <desc>Created with Sketch.</desc>
    <defs>
        <linearGradient x1="0%" y1="0%" x2="101.999998%" y2="100.999999%" id="linearGradient-1">
            <stop stop-color="#3023AE" offset="0%"></stop>
            <stop stop-color="#C96DD8" offset="100%"></stop>
        </linearGradient>
    </defs>
    <g id="Page-1" stroke="none" stroke-width="1" fill="none" fill-rule="evenodd">
        <path d="M3.31909938,0.5 L27.4262422,0.5 C29.2569876,0.5 30.7453416,1.98835404 30.7453416,3.81909938 L30.7453416,27.1809006 C30.7453416,27.2913043 30.7229814,27.396118 30.7131988,27.5037267 C30.7020186,27.621118 30.6950311,27.7371118 30.6768634,27.848913 C30.418323,29.4630435 29.3869565,30.5 27.9419255,30.5 L2.78664596,30.5 C1.2507764,30.5 0.190062112,29.3065217 0.0321428571,27.4981366 C0.0223602484,27.3919255 0,27.2885093 0,27.1809006 L0,3.81909938 C0,1.98835404 1.48835404,0.5 3.31909938,0.5 Z M3.31909938,29.1024845 L27.4262422,29.1024845 C28.3416149,29.1024845 29.1074534,28.4568323 29.298913,27.5987578 C29.3031056,27.5708075 29.3114907,27.5414596 29.3142857,27.5149068 C29.3212733,27.4729814 29.3226708,27.4296584 29.3268634,27.3863354 C29.342236,27.2340062 29.3478261,27.1012422 29.3478261,27.0341615 L29.3478261,5.74223602 L1.39751553,5.74223602 L1.39751553,27.0341615 C1.39751553,27.0900621 1.39891304,27.1613354 1.40310559,27.2423913 C1.43664596,28.2723602 2.28074534,29.1024845 3.31909938,29.1024845 Z M3.31909938,1.89751553 L27.4262422,1.89751553 C28.485559,1.89751553 29.3478261,2.75978261 29.3478261,3.81909938 L29.3478261,4.3447205 L1.39751553,4.3447205 L1.39751553,3.81909938 C1.39751553,2.75978261 2.25978261,1.89751553 3.31909938,1.89751553 Z M14.673913,14.4285714 C15.0596273,14.4285714 15.3726708,14.115528 15.3726708,13.7298137 L15.3726708,9.53726708 L25.1552795,9.53726708 L25.1552795,13.7298137 C25.1552795,14.115528 25.468323,14.4285714 25.8540373,14.4285714 C26.2397516,14.4285714 26.552795,14.115528 26.552795,13.7298137 L26.552795,8.83850932 C26.552795,8.45279503 26.2397516,8.13975155 25.8540373,8.13975155 L14.673913,8.13975155 C14.2881988,8.13975155 13.9751553,8.45279503 13.9751553,8.83850932 L13.9751553,13.7298137 C13.9751553,14.115528 14.2881988,14.4285714 14.673913,14.4285714 M26.552795,16.5248447 L15.3726708,16.5248447 C14.9869565,16.5248447 14.673913,16.8378882 14.673913,17.2236025 C14.673913,17.6093168 14.9869565,17.9223602 15.3726708,17.9223602 L26.552795,17.9223602 C26.9385093,17.9223602 27.2515528,17.6093168 27.2515528,17.2236025 C27.2515528,16.8378882 26.9385093,16.5248447 26.552795,16.5248447 M23.5914596,22.1149068 L25.1552795,22.1149068 C25.5409938,22.1149068 25.8540373,21.8018634 25.8540373,21.4161491 C25.8540373,21.0304348 25.5409938,20.7173913 25.1552795,20.7173913 L21.6614907,20.7173913 C21.2757764,20.7173913 20.9627329,21.0304348 20.9627329,21.4161491 L20.9627329,24.9099379 C20.9627329,25.2956522 21.2757764,25.6086957 21.6614907,25.6086957 C22.047205,25.6086957 22.3602484,25.2956522 22.3602484,24.9099379 L22.3602484,22.8849379 L25.465528,25.6981366 C25.5982919,25.8197205 25.7673913,25.8798137 25.9350932,25.8798137 C26.1251553,25.8798137 26.3152174,25.8029503 26.4521739,25.6506211 C26.7121118,25.3641304 26.6897516,24.923913 26.4046584,24.6639752 L23.5914596,22.1149068 M18.1677019,20.7173913 L4.19254658,20.7173913 C3.8068323,20.7173913 3.49378882,21.0304348 3.49378882,21.4161491 C3.49378882,21.8018634 3.8068323,22.1149068 4.19254658,22.1149068 L18.1677019,22.1149068 C18.5534161,22.1149068 18.8664596,21.8018634 18.8664596,21.4161491 C18.8664596,21.0304348 18.5534161,20.7173913 18.1677019,20.7173913 M18.1677019,24.9099379 L4.19254658,24.9099379 C3.8068323,24.9099379 3.49378882,25.2229814 3.49378882,25.6086957 C3.49378882,25.9944099 3.8068323,26.3074534 4.19254658,26.3074534 L18.1677019,26.3074534 C18.5534161,26.3074534 18.8664596,25.9944099 18.8664596,25.6086957 C18.8664596,25.2229814 18.5534161,24.9099379 18.1677019,24.9099379 M11.878882,17.9223602 L3.49378882,17.9223602 C3.10807453,17.9223602 2.79503106,17.6093168 2.79503106,17.2236025 L2.79503106,8.83850932 C2.79503106,8.45279503 3.10807453,8.13975155 3.49378882,8.13975155 L11.878882,8.13975155 C12.2645963,8.13975155 12.5776398,8.45279503 12.5776398,8.83850932 L12.5776398,17.2236025 C12.5776398,17.6093168 12.2645963,17.9223602 11.878882,17.9223602 Z M4.19254658,16.5248447 L11.1801242,16.5248447 L11.1801242,9.53726708 L4.19254658,9.53726708 L4.19254658,16.5248447 Z" id="wireframe" fill="url(#linearGradient-1)"></path>
    </g>
</svg>