<?xml version="1.0" encoding="UTF-8"?>
<svg width="22px" height="22px" viewBox="0 0 22 22" version="1.1" xmlns="http://www.w3.org/2000/svg" xmlns:xlink="http://www.w3.org/1999/xlink">
    <!-- Generator: Sketch 43.1 (39012) - http://www.bohemiancoding.com/sketch -->
    <title>script</title>
    <desc>Created with Sketch.</desc>
    <defs></defs>
    <g id="Page-1" stroke="none" stroke-width="1" fill="none" fill-rule="evenodd">
        <path d="M20.5,5.644 L17.5,5.644 L17.5,2.847 C17.5,2.025 18.175,1.356 19.004,1.356 C19.829,1.356 20.5,2.025 20.5,2.847 L20.5,5.644 Z M16.5,2.847 L16.5,19.185 C16.5,19.704 16.29,19.921 16.132,20.039 C15.803,20.285 15.239,20.41 14.455,20.41 L14.451,20.41 L4.945,20.41 C5.287,19.984 5.5,19.452 5.5,18.866 L5.5,3.526 C5.5,3.215 5.591,1.648 7.3,1.356 L17.01,1.356 C16.694,1.773 16.5,2.286 16.5,2.847 Z M4.5,17.644 L4.5,18.866 C4.5,19.687 3.825,20.356 2.995,20.356 C2.171,20.356 1.5,19.687 1.5,18.866 L1.5,15.644 L4.5,15.644 L4.5,17.644 Z M19.004,0.356 C20.38,0.356 21.5,1.474 21.5,2.847 L21.5,6.144 C21.5,6.42 21.276,6.644 21,6.644 L17.5,6.644 L17.5,19.185 C17.5,19.901 17.241,20.458 16.731,20.84 C16.218,21.224 15.474,21.41 14.455,21.41 L14.45,21.41 L3.083,21.41 C2.995,21.41 2.917,21.381 2.845,21.342 C1.54,21.262 0.5,20.187 0.5,18.866 L0.5,15.144 C0.5,14.867 0.724,14.644 1,14.644 L4.5,14.644 L4.5,3.526 C4.5,2.276 5.212,0.697 7.218,0.363 L18.179,0.356 C18.271,0.356 18.352,0.388 18.425,0.431 C18.612,0.386 18.804,0.356 19.004,0.356 Z M7.5,9.644 L8.5,9.644 L8.5,7.644 L7.5,7.644 L7.5,9.644 Z M7,10.644 C6.724,10.644 6.5,10.42 6.5,10.144 L6.5,7.144 C6.5,6.867 6.724,6.644 7,6.644 L9,6.644 C9.276,6.644 9.5,6.867 9.5,7.144 L9.5,10.144 C9.5,10.42 9.276,10.644 9,10.644 L7,10.644 Z M10.5,7.644 C10.224,7.644 10,7.42 10,7.144 C10,6.867 10.224,6.644 10.5,6.644 L15.5,6.644 C15.776,6.644 16,6.867 16,7.144 C16,7.42 15.776,7.644 15.5,7.644 L10.5,7.644 Z M10.5,10.644 C10.224,10.644 10,10.42 10,10.144 C10,9.867 10.224,9.644 10.5,9.644 L15.5,9.644 C15.776,9.644 16,9.867 16,10.144 C16,10.42 15.776,10.644 15.5,10.644 L10.5,10.644 Z M15.5,12.644 C15.776,12.644 16,12.867 16,13.144 C16,13.42 15.776,13.644 15.5,13.644 L6.5,13.644 C6.224,13.644 6,13.42 6,13.144 C6,12.867 6.224,12.644 6.5,12.644 L15.5,12.644 Z M15.5,14.644 C15.776,14.644 16,14.867 16,15.144 C16,15.42 15.776,15.644 15.5,15.644 L6.5,15.644 C6.224,15.644 6,15.42 6,15.144 C6,14.867 6.224,14.644 6.5,14.644 L15.5,14.644 Z M15.5,17.644 C15.776,17.644 16,17.867 16,18.144 C16,18.42 15.776,18.644 15.5,18.644 L6.5,18.644 C6.224,18.644 6,18.42 6,18.144 C6,17.867 6.224,17.644 6.5,17.644 L15.5,17.644 Z M9.146,4.886 C8.733,4.886 8.396,4.552 8.396,4.142 C8.388,3.967 8.462,3.77 8.601,3.623 C8.877,3.333 9.388,3.322 9.673,3.614 C9.814,3.758 9.892,3.955 9.887,4.155 C9.892,4.326 9.815,4.521 9.678,4.661 C9.539,4.804 9.345,4.886 9.146,4.886 Z M10.867,4.886 C10.454,4.886 10.117,4.552 10.117,4.142 C10.117,3.727 10.454,3.39 10.867,3.39 C11.28,3.414 11.596,3.732 11.615,4.116 C11.616,4.552 11.28,4.886 10.867,4.886 Z M12.592,4.886 C12.384,4.886 12.191,4.806 12.051,4.66 C11.913,4.518 11.84,4.328 11.846,4.126 C11.846,3.727 12.18,3.39 12.592,3.39 C13.024,3.415 13.341,3.759 13.33,4.156 C13.335,4.324 13.26,4.52 13.122,4.661 C12.983,4.804 12.79,4.886 12.592,4.886 Z" id="script" fill="#6460AA"></path>
    </g>
</svg>