<?xml version="1.0" encoding="UTF-8"?>
<svg width="20px" height="24px" viewBox="0 0 20 24" version="1.1" xmlns="http://www.w3.org/2000/svg" xmlns:xlink="http://www.w3.org/1999/xlink">
    <!-- Generator: Sketch 43.1 (39012) - http://www.bohemiancoding.com/sketch -->
    <title>upload</title>
    <desc>Created with Sketch.</desc>
    <defs></defs>
    <g id="Page-1" stroke="none" stroke-width="1" fill="none" fill-rule="evenodd">
        <path d="M5.398,11.929 C3.584,11.929 2.108,10.453 2.108,8.639 L2.108,8.36 C2.108,6.584 3.523,5.132 5.286,5.072 C5.447,2.614 7.5,0.663 10,0.663 C12.5,0.663 14.553,2.613 14.714,5.072 C16.478,5.131 17.894,6.583 17.894,8.36 L17.894,8.639 C17.894,10.453 16.418,11.929 14.604,11.929 L12.8,11.929 C12.523,11.929 12.3,11.705 12.3,11.429 C12.3,11.152 12.523,10.929 12.8,10.929 L14.604,10.929 C15.866,10.929 16.894,9.901 16.894,8.639 L16.894,8.36 C16.894,7.098 15.866,6.07 14.604,6.07 L14.221,6.07 C14.085,6.07 13.956,6.016 13.861,5.918 C13.768,5.821 13.717,5.689 13.721,5.554 L13.725,5.386 C13.725,3.333 12.054,1.663 10,1.663 C7.946,1.663 6.275,3.333 6.275,5.386 L6.278,5.489 C6.284,5.626 6.235,5.788 6.142,5.887 C6.047,5.985 5.918,6.07 5.781,6.07 L5.398,6.07 C4.136,6.07 3.108,7.098 3.108,8.36 L3.108,8.639 C3.108,9.901 4.136,10.929 5.398,10.929 L7.109,10.929 C7.386,10.929 7.609,11.152 7.609,11.429 C7.609,11.705 7.386,11.929 7.109,11.929 L5.398,11.929 Z M3.624,16.108 C3.9,16.108 4.124,16.332 4.124,16.608 C4.124,16.885 3.9,17.108 3.624,17.108 L3.145,17.108 L3.145,17.587 C3.145,17.863 2.921,18.087 2.645,18.087 C2.368,18.087 2.145,17.863 2.145,17.587 L2.145,16.608 C2.145,16.332 2.368,16.108 2.645,16.108 L3.624,16.108 Z M13.007,16.69 C13.283,16.69 13.507,16.914 13.507,17.19 C13.507,17.467 13.283,17.69 13.007,17.69 L12.317,17.69 C12.041,17.69 11.817,17.467 11.817,17.19 C11.817,16.914 12.041,16.69 12.317,16.69 L13.007,16.69 Z M15.118,16.69 C15.395,16.69 15.618,16.914 15.618,17.19 C15.618,17.467 15.395,17.69 15.118,17.69 L14.431,17.69 C14.154,17.69 13.931,17.467 13.931,17.19 C13.931,16.914 14.154,16.69 14.431,16.69 L15.118,16.69 Z M17.23,16.69 C17.507,16.69 17.73,16.914 17.73,17.19 C17.73,17.467 17.507,17.69 17.23,17.69 L16.542,17.69 C16.266,17.69 16.042,17.467 16.042,17.19 C16.042,16.914 16.266,16.69 16.542,16.69 L17.23,16.69 Z M2.645,21.897 C2.368,21.897 2.145,21.674 2.145,21.397 L2.145,20.419 C2.145,20.143 2.368,19.919 2.645,19.919 L3.624,19.919 C3.9,19.919 4.124,20.143 4.124,20.419 C4.124,20.695 3.9,20.919 3.624,20.919 L3.145,20.919 L3.145,21.397 C3.145,21.674 2.921,21.897 2.645,21.897 Z M12.317,21.501 C12.041,21.501 11.817,21.277 11.817,21.001 C11.817,20.725 12.041,20.501 12.317,20.501 L13.007,20.501 C13.283,20.501 13.507,20.725 13.507,21.001 C13.507,21.277 13.283,21.501 13.007,21.501 L12.317,21.501 Z M14.431,21.501 C14.154,21.501 13.931,21.277 13.931,21.001 C13.931,20.725 14.154,20.501 14.431,20.501 L15.118,20.501 C15.395,20.501 15.618,20.725 15.618,21.001 C15.618,21.277 15.395,21.501 15.118,21.501 L14.431,21.501 Z M16.542,21.501 C16.266,21.501 16.042,21.277 16.042,21.001 C16.042,20.725 16.266,20.501 16.542,20.501 L17.23,20.501 C17.507,20.501 17.73,20.725 17.73,21.001 C17.73,21.277 17.507,21.501 17.23,21.501 L16.542,21.501 Z M10,14.599 C9.724,14.599 9.5,14.375 9.5,14.099 L9.5,9.547 L8.342,10.706 C8.146,10.901 7.83,10.901 7.635,10.706 C7.439,10.511 7.439,10.194 7.635,9.999 L9.646,7.986 C9.834,7.799 10.166,7.799 10.353,7.986 L12.367,9.999 C12.563,10.194 12.563,10.511 12.367,10.706 C12.269,10.804 12.142,10.852 12.014,10.852 C11.886,10.852 11.758,10.804 11.66,10.706 L10.5,9.547 L10.5,14.099 C10.5,14.375 10.276,14.599 10,14.599 Z M1.501,18.526 L18.501,18.526 L18.501,15.852 L1.501,15.852 L1.501,18.526 Z M1.501,22.337 L18.501,22.337 L18.501,19.663 L1.501,19.663 L1.501,22.337 Z M19.001,14.852 L1.001,14.852 C0.725,14.852 0.501,15.076 0.501,15.352 L0.501,23.337 L19.501,23.337 L19.501,15.352 C19.501,15.076 19.277,14.852 19.001,14.852 L19.001,14.852 Z" id="upload" fill="#6460AA"></path>
    </g>
</svg>