<?xml version="1.0" encoding="UTF-8"?>
<svg width="22px" height="24px" viewBox="0 0 22 24" version="1.1" xmlns="http://www.w3.org/2000/svg" xmlns:xlink="http://www.w3.org/1999/xlink">
    <!-- Generator: Sketch 43.1 (39012) - http://www.bohemiancoding.com/sketch -->
    <title>wireframe</title>
    <desc>Created with Sketch.</desc>
    <defs></defs>
    <g id="Page-1" stroke="none" stroke-width="1" fill="none" fill-rule="evenodd">
        <path d="M2.375,22.5 C1.632,22.5 1.028,21.906 1.004,21.169 C1.001,21.111 1,21.06 1,21.02 L1,6.5 L21,6.5 L21,21.02 C21,21.068 20.996,21.163 20.985,21.272 C20.982,21.303 20.981,21.334 20.976,21.364 C20.974,21.383 20.968,21.404 20.965,21.424 C20.828,22.038 20.28,22.5 19.625,22.5 L2.375,22.5 Z M2.375,1.5 L19.625,1.5 C20.383,1.5 21,2.117 21,2.875 L21,5.5 L1,5.5 L1,2.875 C1,2.117 1.617,1.5 2.375,1.5 Z M19.625,0.5 L2.375,0.5 C1.065,0.5 0,1.565 0,2.875 L0,21.125 C0,21.202 0.016,21.276 0.023,21.352 C0.136,22.646 0.895,23.5 1.994,23.5 L19.994,23.5 C21.028,23.5 21.766,22.758 21.951,21.603 L21.952,21.602 C21.964,21.523 21.969,21.44 21.977,21.356 C21.984,21.279 22,21.204 22,21.125 L22,2.875 C22,1.565 20.935,0.5 19.625,0.5 L19.625,0.5 Z M10.5,12 C10.776,12 11,11.776 11,11.5 L11,8.5 L18,8.5 L18,11.5 C18,11.776 18.224,12 18.5,12 C18.776,12 19,11.776 19,11.5 L19,8 C19,7.724 18.776,7.5 18.5,7.5 L10.5,7.5 C10.224,7.5 10,7.724 10,8 L10,11.5 C10,11.776 10.224,12 10.5,12 M19,13.5 L11,13.5 C10.724,13.5 10.5,13.724 10.5,14 C10.5,14.276 10.724,14.5 11,14.5 L19,14.5 C19.276,14.5 19.5,14.276 19.5,14 C19.5,13.724 19.276,13.5 19,13.5 M16.881,17.5 L18,17.5 C18.276,17.5 18.5,17.276 18.5,17 C18.5,16.724 18.276,16.5 18,16.5 L15.5,16.5 C15.224,16.5 15,16.724 15,17 L15,19.5 C15,19.776 15.224,20 15.5,20 C15.776,20 16,19.776 16,19.5 L16,18.051 L18.222,20.064 C18.317,20.151 18.438,20.194 18.558,20.194 C18.694,20.194 18.83,20.139 18.928,20.03 C19.114,19.825 19.098,19.51 18.894,19.324 L16.881,17.5 M13,16.5 L3,16.5 C2.724,16.5 2.5,16.724 2.5,17 C2.5,17.276 2.724,17.5 3,17.5 L13,17.5 C13.276,17.5 13.5,17.276 13.5,17 C13.5,16.724 13.276,16.5 13,16.5 M13,19.5 L3,19.5 C2.724,19.5 2.5,19.724 2.5,20 C2.5,20.276 2.724,20.5 3,20.5 L13,20.5 C13.276,20.5 13.5,20.276 13.5,20 C13.5,19.724 13.276,19.5 13,19.5 M8.5,14.5 L2.5,14.5 C2.224,14.5 2,14.276 2,14 L2,8 C2,7.724 2.224,7.5 2.5,7.5 L8.5,7.5 C8.776,7.5 9,7.724 9,8 L9,14 C9,14.276 8.776,14.5 8.5,14.5 Z M3,13.5 L8,13.5 L8,8.5 L3,8.5 L3,13.5 Z" id="wireframe" fill="#6460AA"></path>
    </g>
</svg>