<?xml version="1.0" encoding="UTF-8"?>
<svg width="24px" height="24px" viewBox="0 0 24 24" version="1.1" xmlns="http://www.w3.org/2000/svg" xmlns:xlink="http://www.w3.org/1999/xlink">
    <!-- Generator: Sketch 43.1 (39012) - http://www.bohemiancoding.com/sketch -->
    <title>meet</title>
    <desc>Created with Sketch.</desc>
    <defs></defs>
    <g id="Page-1" stroke="none" stroke-width="1" fill="none" fill-rule="evenodd">
        <path d="M23.179,1.064 C23.308,1.309 23.213,1.611 22.969,1.739 L16.613,5.077 C16.54,5.116 16.46,5.135 16.381,5.135 C16.235,5.135 16.093,5.071 15.995,4.952 L15.203,3.99 L13.101,3.492 L10.819,4.573 C10.57,4.688 10.272,4.585 10.153,4.335 C10.035,4.086 10.142,3.787 10.392,3.669 L12.831,2.513 C12.935,2.464 13.05,2.453 13.16,2.479 L15.598,3.057 C15.704,3.082 15.799,3.141 15.868,3.226 L16.509,4.003 L22.504,0.854 C22.747,0.728 23.051,0.819 23.179,1.064 Z M6.914,9.227 C6.738,9.227 6.567,9.134 6.477,8.969 C6.343,8.727 6.431,8.423 6.672,8.289 L11.289,5.737 C11.532,5.605 11.836,5.69 11.969,5.933 C12.103,6.175 12.015,6.479 11.773,6.612 L7.156,9.164 C7.079,9.206 6.996,9.227 6.914,9.227 Z M6.689,11.425 C6.516,11.425 6.346,11.333 6.254,11.17 C6.118,10.93 6.203,10.625 6.444,10.489 L11.751,7.5 C11.986,7.364 12.295,7.448 12.432,7.69 C12.567,7.931 12.482,8.235 12.241,8.371 L6.935,11.36 C6.857,11.404 6.773,11.425 6.689,11.425 Z M7.17,12.777 C7.032,12.538 7.115,12.232 7.355,12.096 L12.543,9.126 C12.779,8.989 13.087,9.069 13.225,9.312 C13.362,9.551 13.279,9.856 13.039,9.993 L7.852,12.963 C7.773,13.008 7.688,13.029 7.604,13.029 C7.431,13.029 7.262,12.939 7.17,12.777 Z M22.144,5.897 C22.386,5.764 22.69,5.854 22.821,6.097 C22.954,6.339 22.864,6.643 22.622,6.774 L14.223,11.355 C14.219,11.357 14.218,11.361 14.214,11.363 L1.858,18.103 C1.782,18.144 1.7,18.164 1.619,18.164 C1.442,18.164 1.271,18.07 1.181,17.903 C1.048,17.661 1.138,17.357 1.38,17.226 L9.779,12.644 C9.783,12.643 9.784,12.639 9.788,12.637 L22.144,5.897 Z M13.183,19.427 C13.431,19.31 13.729,19.414 13.849,19.665 C13.967,19.915 13.86,20.213 13.61,20.331 L11.171,21.485 C11.068,21.532 10.953,21.545 10.842,21.519 L8.402,20.943 C8.296,20.919 8.201,20.859 8.132,20.774 L7.491,19.997 L1.498,23.146 C1.424,23.185 1.345,23.203 1.266,23.203 C1.086,23.203 0.912,23.105 0.823,22.935 C0.694,22.691 0.789,22.389 1.033,22.261 L7.387,18.923 C7.596,18.812 7.854,18.864 8.005,19.048 L8.797,20.009 L10.901,20.506 L13.183,19.427 Z M16.846,14.835 C17.088,14.702 17.392,14.789 17.525,15.03 C17.659,15.272 17.571,15.576 17.33,15.71 L12.711,18.263 C12.634,18.305 12.551,18.325 12.469,18.325 C12.293,18.325 12.122,18.232 12.031,18.067 C11.897,17.825 11.985,17.521 12.227,17.388 L16.846,14.835 Z M17.065,12.64 C17.302,12.504 17.61,12.588 17.746,12.83 C17.882,13.07 17.797,13.375 17.556,13.511 L12.251,16.5 C12.174,16.544 12.09,16.565 12.006,16.565 C11.832,16.565 11.662,16.473 11.57,16.31 C11.435,16.069 11.519,15.765 11.761,15.629 L17.065,12.64 Z M11.211,14.94 C11.038,14.94 10.869,14.851 10.777,14.689 C10.64,14.449 10.723,14.144 10.963,14.007 L16.148,11.037 C16.385,10.9 16.692,10.98 16.83,11.223 C16.968,11.462 16.885,11.768 16.645,11.904 L11.459,14.874 C11.381,14.919 11.296,14.94 11.211,14.94 Z" id="meet" fill="#6460AA"></path>
    </g>
</svg>