<?xml version="1.0" encoding="UTF-8"?>
<svg width="32px" height="31px" viewBox="0 0 32 31" version="1.1" xmlns="http://www.w3.org/2000/svg" xmlns:xlink="http://www.w3.org/1999/xlink">
    <!-- Generator: Sketch 43.1 (39012) - http://www.bohemiancoding.com/sketch -->
    <title>script</title>
    <desc>Created with Sketch.</desc>
    <defs>
        <linearGradient x1="0%" y1="0%" x2="85.283919%" y2="84.4478029%" id="linearGradient-1">
            <stop stop-color="#3023AE" offset="0%"></stop>
            <stop stop-color="#C96DD8" offset="100%"></stop>
        </linearGradient>
    </defs>
    <g id="Page-1" stroke="none" stroke-width="1" fill="none" fill-rule="evenodd">
        <path d="M30.0279401,7.91028571 L25.5987491,7.91028571 L25.5987491,3.91457143 C25.5987491,2.74028571 26.595317,1.78457143 27.8192502,1.78457143 C29.0372777,1.78457143 30.0279401,2.74028571 30.0279401,3.91457143 L30.0279401,7.91028571 Z M24.1223521,3.9085349 L24.1223521,27.1823882 C24.1223521,27.9217155 23.8123087,28.2308369 23.579038,28.3989306 C23.0933033,28.7493632 22.2606154,28.9274286 21.1031202,28.9274286 L21.0972146,28.9274286 L7.06258468,28.9274286 C7.56751246,28.3205819 7.88198502,27.5627357 7.88198502,26.7279654 L7.88198502,4.87578587 C7.88198502,4.43275929 8.01633714,2.20053208 10.5394996,1.78457143 L24.8753145,1.78457143 C24.4087731,2.37859743 24.1223521,3.10937762 24.1223521,3.9085349 Z M6.40558801,25.0531429 L6.40558801,26.7988571 C6.40558801,27.9717143 5.40902004,28.9274286 4.18361052,28.9274286 C2.96705939,28.9274286 1.976397,27.9717143 1.976397,26.7988571 L1.976397,22.196 L6.40558801,22.196 L6.40558801,25.0531429 Z M26.9644163,0.462868054 C27.2405025,0.398747221 27.5239708,0.356 27.8192502,0.356 C29.8507724,0.356 31.5043371,1.94904645 31.5043371,3.90544429 L31.5043371,8.60336392 C31.5043371,8.99663836 31.1736241,9.31581761 30.7661386,9.31581761 L25.5987491,9.31581761 L25.5987491,27.1855811 C25.5987491,28.2058148 25.2163622,28.9994882 24.4633998,29.5438028 C23.7060081,30.0909672 22.6075687,30.356 21.0957382,30.356 L4.31353346,30.356 C4.18361052,30.356 4.06845156,30.3146777 3.96215097,30.2591063 C2.03545288,30.1451137 0.5,28.6133383 0.5,26.7310356 L0.5,21.4275304 C0.5,21.032831 0.830712929,20.7150767 1.2381985,20.7150767 L6.40558801,20.7150767 L6.40558801,4.8729564 C6.40558801,3.09182217 7.45678268,0.841893417 10.4184351,0.365974352 L26.6012226,0.356 C26.7370511,0.356 26.8566393,0.401597036 26.9644163,0.462868054 Z M21.9815764,23.4527547 L10.0227607,23.4527547 C9.65602366,23.4527547 9.35838202,23.7819913 9.35838202,24.1909532 C9.35838202,24.5984388 9.65602366,24.9291517 10.0227607,24.9291517 L21.9815764,24.9291517 C22.3483134,24.9291517 22.6459551,24.5984388 22.6459551,24.1909532 C22.6459551,23.7819913 22.3483134,23.4527547 21.9815764,23.4527547 Z M21.9815764,19.0235637 L10.0227607,19.0235637 C9.65602366,19.0235637 9.35838202,19.3528002 9.35838202,19.7617622 C9.35838202,20.1692478 9.65602366,20.4999607 10.0227607,20.4999607 L21.9815764,20.4999607 C22.3483134,20.4999607 22.6459551,20.1692478 22.6459551,19.7617622 C22.6459551,19.3528002 22.3483134,19.0235637 21.9815764,19.0235637 Z M21.9815764,14.5943727 L10.0227607,14.5943727 C9.65602366,14.5943727 9.35838202,14.9236092 9.35838202,15.3325712 C9.35838202,15.7400568 9.65602366,16.0707697 10.0227607,16.0707697 L21.9815764,16.0707697 C22.3483134,16.0707697 22.6459551,15.7400568 22.6459551,15.3325712 C22.6459551,14.9236092 22.3483134,14.5943727 21.9815764,14.5943727 Z M21.9815764,10.1651817 L10.0227607,10.1651817 C9.65602366,10.1651817 9.35838202,10.4944182 9.35838202,10.9033802 C9.35838202,11.3108658 9.65602366,11.6415787 10.0227607,11.6415787 L21.9815764,11.6415787 C22.3483134,11.6415787 22.6459551,11.3108658 22.6459551,10.9033802 C22.6459551,10.4944182 22.3483134,10.1651817 21.9815764,10.1651817 Z M11.7203274,6.18894928 C11.9960478,6.18894928 12.2648405,6.07487691 12.457429,5.87594582 C12.6472466,5.68118811 12.7539323,5.40991844 12.7470047,5.17203581 C12.7539323,4.89381051 12.645861,4.61975859 12.4505014,4.41943638 C12.0556255,4.01322744 11.34762,4.02852983 10.9652139,4.43195652 C10.7726253,4.63645211 10.6700961,4.91050403 10.6811804,5.15395117 C10.6811804,5.72431303 11.1481038,6.18894928 11.7203274,6.18894928 Z M15.7333662,6.18894928 C16.303227,6.18894928 16.7668425,5.72747653 16.7654627,5.12507497 C16.7392464,4.59451947 16.303227,4.1551532 15.7333662,4.12199348 C15.1635054,4.12199348 14.69851,4.58761119 14.69851,5.160998 C14.69851,5.72747653 15.1635054,6.18894928 15.7333662,6.18894928 Z M19.7661837,6.18894928 C20.0418483,6.18894928 20.3105517,6.07565358 20.5040738,5.87807692 C20.6962037,5.68326357 20.8006221,5.4124592 20.7936609,5.18034117 C20.8089756,4.63182415 20.3676338,4.15653485 19.7661837,4.12199348 C19.1925786,4.12199348 18.7275686,4.58761119 18.7275686,5.13889152 C18.7192151,5.41798582 18.820849,5.68050026 19.0129789,5.87669526 C19.2078933,6.07841689 19.4765966,6.18894928 19.7661837,6.18894928 Z" id="script" fill="url(#linearGradient-1)"></path>
    </g>
</svg>